<svg width="100" height="100" viewBox="0 0 100 100" fill="none" xmlns="http://www.w3.org/2000/svg">
<path d="M91.7813 22.5674C67.6055 -14.4715 10.0732 -3.56914 1.12939 39.7491C-5.629 70.3049 18.8611 100.272 50.1153 99.8824C89.3819 100.038 113.581 55.3671 91.7813 22.5674ZM88.5176 24.7056C92.1571 30.2604 94.5105 36.401 95.5103 42.7707C82.5486 33.539 64.7244 31.7277 48.8601 32.0693C47.9976 28.8562 45.9778 26.0338 43.1837 24.187C48.5799 15.4157 56.065 8.67972 63.5271 5.92424C73.794 9.05703 82.5625 15.616 88.5176 24.7056ZM35.6709 45.3407C22.6896 44.7901 22.7823 26.3432 35.666 25.834C36.3225 25.834 36.9897 25.9011 37.6575 26.0402C49.0866 28.7237 47.2917 45.0869 35.6709 45.3407ZM24.7867 11.4286C34.4982 5.05393 46.0718 2.63596 57.3817 4.49304C50.6717 8.26768 44.4252 14.5768 39.6293 22.5198C35.4399 21.2228 30.8412 22.1421 27.5464 24.6188C24.7199 20.7294 22.5698 16.7296 21.6605 13.6643C22.6716 12.8767 23.7145 12.1308 24.7867 11.4286ZM18.469 16.3917C19.7271 19.7256 21.935 23.6117 24.7447 27.3963C23.2729 29.3273 22.2827 31.8497 22.0679 34.3665C15.9976 35.4836 9.38198 37.6201 5.03845 40.1249C7.04497 30.9128 11.7176 22.7143 18.469 16.3917ZM4.1779 45.6558C5.61787 43.6615 13.0127 40.0617 22.2852 38.2941C22.7141 40.3909 23.6273 42.3582 24.9519 44.0392C19.3075 53.0224 14.8303 68.7931 15.0424 79.8375C7.16378 70.6032 2.98335 58.3561 4.1779 45.6558ZM50.0257 95.9698C38.9031 96.0732 27.2848 91.5292 19.358 84.2594C17.7025 75.8621 20.9814 58.4872 27.8547 46.7842C30.2857 48.5185 33.5611 49.4423 36.594 49.2111C41.6711 67.2095 51.0525 84.9091 66.9262 92.7317C61.631 94.8336 55.9099 95.9704 50.0257 95.9698ZM95.0782 59.3208C92.1879 73.1944 83.2983 84.3107 71.6849 90.5233C52.4888 83.443 43.6624 59.9074 40.4163 48.3855C45.4069 46.609 49.2337 41.5344 49.3189 35.9558C69.7796 35.1504 90.3517 40.8009 96.0507 48.8759C96.1235 52.3425 95.8028 55.8423 95.0782 59.3208Z" fill="#278DB6"/>
</svg>
