<svg width="303" height="265" viewBox="0 0 303 265" fill="none" xmlns="http://www.w3.org/2000/svg">
<g opacity="0.5">
<path fill-rule="evenodd" clip-rule="evenodd" d="M250.366 215.04C251.411 202.075 260.898 193.207 270.907 194.189C282.477 195.323 294.18 204.232 292.972 219.217C291.686 235.175 279.249 244.764 266.929 243.556C256.061 242.491 249.232 229.117 250.366 215.04Z" fill="#C5E1EC"/>
<path fill-rule="evenodd" clip-rule="evenodd" d="M213.408 249.086C213.949 242.368 221.302 238.012 229.291 238.796C238.524 239.701 248.039 244.655 247.413 252.42C246.747 260.689 237.062 265.34 227.229 264.376C218.555 263.526 212.82 256.381 213.408 249.086Z" fill="#C5E1EC"/>
<path fill-rule="evenodd" clip-rule="evenodd" d="M301.614 59.5632C307.749 109.922 256.979 224.762 193.847 234.119C18.6053 278.562 8.70597 155.787 1.61515 97.5802C-5.93577 35.5969 13.7157 15.3941 91.4206 3.87693C159.97 -6.28332 294.953 4.8827 301.614 59.5632Z" fill="#C5E1EC"/>
</g>
</svg>
