<svg width="303" height="265" viewBox="0 0 303 265" fill="none" xmlns="http://www.w3.org/2000/svg">
<g opacity="0.5">
<path fill-rule="evenodd" clip-rule="evenodd" d="M206.83 246.178C201.447 235.069 209.159 221.979 222.671 216.503C238.288 210.174 258.121 210.03 264.344 222.87C270.971 236.543 259.802 252.063 243.171 258.802C228.5 264.748 212.676 258.24 206.83 246.178Z" fill="#C5E1EC"/>
<path fill-rule="evenodd" clip-rule="evenodd" d="M139.378 217.985C142.428 211.321 152.198 209.189 160.804 212.482C170.752 216.289 179.537 224.302 176.013 232.004C172.259 240.206 159.786 241.91 149.193 237.856C139.848 234.28 136.067 225.22 139.378 217.985Z" fill="#C5E1EC"/>
<path fill-rule="evenodd" clip-rule="evenodd" d="M90.1631 248.43C92.3504 243.65 99.6978 242.251 106.261 244.762C113.848 247.666 120.63 253.597 118.102 259.121C115.41 265.004 106.012 266.053 97.9329 262.962C90.806 260.234 87.7882 253.619 90.1631 248.43Z" fill="#C5E1EC"/>
<path fill-rule="evenodd" clip-rule="evenodd" d="M1.32397 30.3907C-5.3376 75.724 38.7216 189.226 107.274 197.649C297.563 237.657 291.972 143.04 299.672 90.6424C307.871 34.8448 304.454 25.3344 220.077 14.9665C145.641 5.82026 8.5572 -18.8329 1.32397 30.3907Z" fill="#C5E1EC"/>
</g>
</svg>
