<svg width="103" height="103" viewBox="0 0 103 103" fill="none" xmlns="http://www.w3.org/2000/svg">
<g clip-path="url(#clip0_528_3196)">
<path d="M94.5348 23.2444C69.6337 -14.9056 10.3754 -3.67623 1.16327 40.9416C-5.79787 72.414 19.427 103.281 51.6188 102.879C92.0634 103.039 116.988 57.0281 94.5348 23.2444ZM91.1732 25.4467C94.9218 31.1682 97.3458 37.493 98.3756 44.0538C85.0251 34.5451 66.6661 32.6795 50.3259 33.0314C49.4375 29.7218 47.3571 26.8148 44.4792 24.9126C50.0373 15.8781 57.747 8.9401 65.4329 6.10195C76.0079 9.32873 85.0393 16.0845 91.1732 25.4467ZM36.741 46.7009C23.3703 46.1338 23.4658 27.1335 36.736 26.609C37.4121 26.609 38.0994 26.6781 38.7872 26.8214C50.5592 29.5854 48.7105 46.4395 36.741 46.7009ZM25.5303 11.7714C35.5331 5.20554 47.454 2.71503 59.1032 4.62782C52.1919 8.51571 45.758 15.0141 40.8182 23.1953C36.5031 21.8595 31.7664 22.8063 28.3728 25.3573C25.4615 21.3513 23.2469 17.2315 22.3103 14.0742C23.3517 13.263 24.4259 12.4947 25.5303 11.7714ZM19.0231 16.8835C20.319 20.3174 22.593 24.32 25.4871 28.2182C23.9711 30.2071 22.9511 32.8051 22.7299 35.3975C16.4775 36.5481 9.66344 38.7487 5.1896 41.3286C7.25632 31.8402 12.0692 23.3957 19.0231 16.8835ZM4.30324 47.0254C5.78641 44.9714 13.403 41.2635 22.9537 39.443C23.3955 41.6026 24.3361 43.629 25.7005 45.3604C19.8867 54.6131 15.2752 70.8569 15.4937 82.2326C7.3787 72.7213 3.07285 60.1067 4.30324 47.0254ZM51.5265 98.8489C40.0702 98.9554 28.1034 94.275 19.9388 86.7872C18.2335 78.1379 21.6108 60.2418 28.6903 48.1877C31.1943 49.9741 34.568 50.9256 37.6919 50.6874C42.9212 69.2258 52.5841 87.4564 68.934 95.5136C63.4799 97.6786 57.5872 98.8495 51.5265 98.8489ZM97.9306 61.1004C94.9536 75.3902 85.7973 86.8401 73.8354 93.239C54.0635 85.9463 44.9723 61.7046 41.6288 49.837C46.7691 48.0072 50.7107 42.7804 50.7985 37.0344C71.873 36.2049 93.0623 42.0249 98.9323 50.3422C99.0072 53.9128 98.6769 57.5176 97.9306 61.1004Z" fill="#278DB6"/>
</g>
<defs>
<clipPath id="clip0_528_3196">
<rect width="103" height="103" fill="white"/>
</clipPath>
</defs>
</svg>
