<svg width="557" height="758" viewBox="0 0 557 758" fill="none" xmlns="http://www.w3.org/2000/svg">
<path d="M540.844 239.964C506.962 307.154 495.925 368.146 494.641 390.243C494.641 409.812 500.031 456.814 521.593 488.275C548.544 527.6 553.795 578.161 482.04 634.901C410.286 691.642 270.978 682.372 133.419 552.318C-4.13925 422.264 -53.4833 208.557 72.9548 141.477C171.607 89.1379 156.575 -7.4874 346.833 35.9044C550.142 82.2726 583.197 155.977 540.844 239.964Z" fill="#278DB6"/>
<path fill-rule="evenodd" clip-rule="evenodd" d="M64.8697 733.962C54.5872 712.736 73.0072 683.851 103.056 668.936C137.788 651.696 180.893 645.94 192.778 670.474C205.434 696.6 179.196 731.403 142.21 749.761C109.582 765.956 76.0346 757.01 64.8697 733.962Z" fill="#278DB6"/>
<path fill-rule="evenodd" clip-rule="evenodd" d="M54.0579 5.04125C67.6861 -3.77606 90.3461 -0.514709 104.654 10.8386C121.192 23.961 130.714 43.1765 114.962 53.3679C98.1884 64.2205 70.3718 58.387 52.7609 44.413C37.2249 32.0854 39.2602 14.6152 54.0579 5.04125Z" fill="#278DB6"/>
</svg>
