<svg width="515" height="705" viewBox="0 0 515 705" fill="none" xmlns="http://www.w3.org/2000/svg">
<path d="M14.9378 214.964C46.2651 282.154 56.4701 343.146 57.6568 365.243C57.6568 384.812 52.6729 431.814 32.7374 463.275C7.81797 502.6 2.96356 553.161 69.3074 609.901C135.651 666.642 264.455 657.372 391.641 527.318C518.827 397.264 564.451 183.557 447.546 116.477C356.333 64.1379 370.232 -32.4874 194.32 10.9044C6.34059 57.2726 -24.2212 130.977 14.9378 214.964Z" fill="#0E739C"/>
<path fill-rule="evenodd" clip-rule="evenodd" d="M311.784 681.887C301.808 661.477 319.679 633.703 348.831 619.361C382.526 602.785 424.344 597.25 435.874 620.84C448.152 645.961 422.697 679.426 386.816 697.078C355.162 712.65 322.616 704.048 311.784 681.887Z" fill="#0E739C"/>
</svg>
