<svg width="1920" height="746" viewBox="0 0 1920 746" fill="none" xmlns="http://www.w3.org/2000/svg">
<path d="M1920 42.7143L1880 85.4286C1840 128.143 1760 213.571 1680 192.214C1600 170.857 1520 42.7143 1440 14.2826C1360 -14.683 1280 57.3973 1200 71.146C1120 85.4286 1040 42.7143 960 56.9969C880 70.7455 800 142.826 720 135.217C640 128.143 560 42.7143 480 35.6397C400 28.0312 320 100.112 240 106.786C160 113.46 80 57.3973 40 28.4317L0 0V746H40C80 746 160 746 240 746C320 746 400 746 480 746C560 746 640 746 720 746C800 746 880 746 960 746C1040 746 1120 746 1200 746C1280 746 1360 746 1440 746C1520 746 1600 746 1680 746C1760 746 1840 746 1880 746H1920V42.7143Z" fill="#0E739C"/>
</svg>
