<svg width="1025" height="370" viewBox="0 0 1025 370" fill="none" xmlns="http://www.w3.org/2000/svg">
<g opacity="0.5">
<path fill-rule="evenodd" clip-rule="evenodd" d="M1007.31 87.5715C1007.31 258.316 1144.5 315 634.499 296C360.501 285.793 78.4854 458.636 5.50011 171.5C-19.778 83.795 43.5224 25.0732 303.654 8.77669C533.136 -5.59982 1007.31 -13.9998 1007.31 87.5715Z" fill="#C5E1EC"/>
<path fill-rule="evenodd" clip-rule="evenodd" d="M752.225 321C803.511 321.003 862.521 322.962 878.964 333.661C895.804 344.62 857.153 354.859 814.752 361.687C771.831 368.599 716.578 373.448 672.446 366.917C624.037 359.753 604.421 345.643 625.265 333.646C643.618 323.083 700.875 320.997 752.225 321Z" fill="#C5E1EC"/>
</g>
</svg>
