<svg width="280" height="210" viewBox="0 0 280 210" fill="none" xmlns="http://www.w3.org/2000/svg">
<path opacity="0.5" fill-rule="evenodd" clip-rule="evenodd" d="M275.409 49.0856C275.409 145.031 312.931 176.883 173.44 166.207C98.4993 160.471 21.3655 257.596 1.40337 96.247C-5.51042 46.9635 11.8028 13.9663 82.9511 4.80891C145.717 -3.2696 275.409 -7.98973 275.409 49.0856Z" fill="#C5E1EC"/>
<path opacity="0.5" fill-rule="evenodd" clip-rule="evenodd" d="M190.836 180C210.117 180.002 232.301 181.201 238.483 187.752C244.814 194.461 230.283 200.73 214.343 204.911C198.207 209.142 177.435 212.111 160.844 208.113C142.646 203.727 135.271 195.087 143.107 187.742C150.007 181.275 171.532 179.998 190.836 180Z" fill="#C5E1EC"/>
</svg>
