<svg width="44" height="44" viewBox="0 0 44 44" fill="none" xmlns="http://www.w3.org/2000/svg">
<g clip-path="url(#clip0_1070_2898)">
<path d="M22 0C17.6257 0.00582075 13.4323 1.74608 10.3392 4.83917C7.24608 7.93226 5.50582 12.1257 5.5 16.5C5.5 28.3456 20.8725 43.1819 21.5256 43.8075C21.6527 43.931 21.8228 44 22 44C22.1772 44 22.3473 43.931 22.4744 43.8075C23.1275 43.1819 38.5 28.3456 38.5 16.5C38.4942 12.1257 36.7539 7.93226 33.6608 4.83917C30.5677 1.74608 26.3743 0.00582075 22 0ZM22 24.0625C20.5043 24.0625 19.0421 23.619 17.7985 22.788C16.5549 21.957 15.5855 20.7759 15.0132 19.394C14.4408 18.0122 14.291 16.4916 14.5828 15.0246C14.8746 13.5576 15.5949 12.2101 16.6525 11.1525C17.7101 10.0949 19.0576 9.37461 20.5246 9.08281C21.9916 8.79101 23.5122 8.94077 24.894 9.51316C26.2759 10.0855 27.457 11.0549 28.288 12.2985C29.119 13.5421 29.5625 15.0043 29.5625 16.5C29.5612 18.5053 28.7641 20.4281 27.3461 21.8461C25.9281 23.2641 24.0053 24.0612 22 24.0625Z" fill="white"/>
</g>
<defs>
<clipPath id="clip0_1070_2898">
<rect width="44" height="44" fill="white"/>
</clipPath>
</defs>
</svg>
