<svg width="47" height="47" viewBox="0 0 47 47" fill="none" xmlns="http://www.w3.org/2000/svg">
<path d="M30.4542 25.4512L26.5178 29.4008C24.9216 31.0027 22.113 31.0372 20.4822 29.4008L16.5457 25.4512L2.40747 39.6353C2.93374 39.8786 3.51399 40.0238 4.13087 40.0238H42.8691C43.486 40.0238 44.0661 39.8788 44.5922 39.6353L30.4542 25.4512Z" fill="white"/>
<path d="M42.8691 6.97656H4.13086C3.51398 6.97656 2.93374 7.12179 2.40765 7.36514L17.5153 22.5229C17.5163 22.5239 17.5175 22.5241 17.5185 22.5251C17.5191 22.5258 17.5196 22.5266 17.5197 22.5275L22.432 27.4561C22.9538 27.9779 24.0464 27.9779 24.5681 27.4561L29.4795 22.5283C29.4795 22.5283 29.4807 22.5261 29.4817 22.5251C29.4817 22.5251 29.4839 22.5239 29.4849 22.5229L44.5922 7.36505C44.0661 7.1216 43.486 6.97656 42.8691 6.97656ZM0.43934 9.29095C0.16707 9.84154 0 10.4527 0 11.1074V35.8926C0 36.5473 0.166887 37.1585 0.439248 37.7091L14.6019 23.5005L0.43934 9.29095ZM46.5607 9.29076L32.3981 23.5005L46.5607 37.7092C46.8329 37.1586 47 36.5475 47 35.8926V11.1074C47 10.4525 46.8329 9.84136 46.5607 9.29076Z" fill="white"/>
</svg>
