<svg width="1920" height="439" viewBox="0 0 1920 439" fill="none" xmlns="http://www.w3.org/2000/svg">
<path opacity="0.1" d="M717.514 162.31C838.522 183.51 991.591 166.81 1053 155.81V169.81C1031.67 175.81 966.123 189.11 874.591 194.31C760.177 200.81 698.122 194.81 554.619 166.81C411.116 138.81 267.613 141.31 162.895 159.31C79.1204 173.71 19.3922 184.977 0 188.81V168.31C9.04968 168.31 38.7845 166.51 85.326 159.31C143.503 150.31 166.773 136.81 238.525 128.31C310.276 119.81 391.724 115.31 480.928 122.81C570.133 130.31 566.254 135.81 717.514 162.31Z" fill="white"/>
<path opacity="0.1" d="M1621.36 295.81C1754.78 302.21 1876.04 281.144 1920 269.81V313.81C1910.3 316.977 1868.8 323.31 1780.38 323.31C1669.84 323.31 1621.36 316.31 1506.94 292.81C1392.53 269.31 1225.76 258.31 1068.68 292.81C943.018 320.41 881.867 323.643 867 321.81V287.81C872.171 287.31 887.168 285.61 905.785 282.81C929.055 279.31 954.265 272.31 996.928 262.31C1039.59 252.31 1173.4 236.81 1301.39 249.81C1429.38 262.81 1454.59 287.81 1621.36 295.81Z" fill="white"/>
<path opacity="0.1" d="M746.602 407.81C887.778 422.21 1009.69 407.477 1053 398.31V411.31C1048.48 412.81 1032.44 417.11 1004.52 422.31C969.613 428.81 771.812 458.31 599.221 418.81C426.63 379.31 252.099 379.31 162.895 400.31C91.5315 417.11 24.5635 427.977 0 431.31V411.31C16.8066 410.143 59.7281 406.31 96.9613 400.31C143.503 392.81 238.525 358.81 413.055 362.81C587.586 366.81 570.133 389.81 746.602 407.81Z" fill="white"/>
<path opacity="0.1" d="M1667.9 51.8114C1790.46 53.0114 1887.03 33.3115 1920 23.3115V68.3114C1916.77 70.1447 1889.75 74.6114 1807.52 77.8113C1704.75 81.8113 1640.75 75.8113 1559.3 59.8114C1477.86 43.8115 1289.75 2.31164 1111.34 40.3115C968.615 70.7114 888.978 77.6447 867 77.3113V42.8115C885.099 39.9781 935.261 31.4115 991.11 19.8115C1060.92 5.31158 1173.4 -7.18837 1299.45 4.81158C1425.5 16.8115 1514.7 50.3114 1667.9 51.8114Z" fill="white"/>
</svg>
