<svg width="123" height="204" viewBox="0 0 123 204" fill="none" xmlns="http://www.w3.org/2000/svg">
<path d="M45.6913 108.939C45.6913 108.939 23.0287 129.462 8.97115 125.947C-5.0848 122.432 8.97115 111.891 8.97115 111.891C8.97115 111.891 -8.59808 104.863 5.45787 94.3199V94.8816C5.35178 94.7771 5.21086 94.7058 5.10679 94.6013C-8.31827 84.2344 8.97115 77.3123 8.97115 77.3123C8.97115 77.3123 -5.0848 66.7697 8.97115 63.2548C19.6892 60.5846 43.3042 75.1325 47.2747 78.8576L45.6913 108.939Z" fill="#FF5364"/>
<path d="M21.0924 108.938C20.2459 108.937 19.4283 108.63 18.7899 108.074C18.1515 107.518 17.7351 106.75 17.6172 105.912C17.4994 105.073 17.6883 104.221 18.1493 103.51C18.6103 102.8 19.3124 102.28 20.1262 102.046L36.705 97.3054L19.335 87.3892C18.5526 86.9134 17.9868 86.1512 17.7579 85.2646C17.5291 84.378 17.6552 83.4371 18.1095 82.6421C18.5638 81.8471 19.3104 81.2607 20.1904 81.0078C21.0705 80.7549 22.0145 80.8554 22.8215 81.2879L47.4202 95.3455C48.0193 95.6889 48.504 96.2013 48.8138 96.8186C49.1235 97.4358 49.2444 98.1307 49.1616 98.8163C49.0787 99.5019 48.7957 100.148 48.3479 100.674C47.9 101.199 47.3072 101.582 46.6435 101.772L22.0448 108.801C21.7353 108.89 21.4147 108.937 21.0924 108.938Z" fill="#DF4D60"/>
<path d="M123 47.3707C123 56.226 118.713 63.4659 115.55 63.2537C114.514 63.0994 113.542 62.662 112.739 61.9899C97.5931 51.7287 77.8097 58.1936 61.4678 51.2367C60.0983 50.639 51.8743 44.7705 52.7191 42.17C50.3291 49.4083 51.5233 58.4406 57.7079 63.2537C64.2802 68.3503 73.5562 66.6277 81.2533 68.912C95.3137 73.0784 105.809 84.8376 108.354 99.2794C110.901 113.723 105.059 128.362 93.27 137.085C86.8751 141.828 74.7868 142.637 63.2962 144.359C48.8182 146.574 35.2527 150.228 35.1486 165.163C35.0769 176.725 40.77 184.841 52.6826 186.247C66.3875 187.829 81.0063 183.928 90.2491 173.316C92.9906 170.118 98.4014 163.265 98.4014 158.486C99.9118 186.984 77.8789 204.098 59.7468 203.959C37.8897 203.783 14.2398 189.762 14.1689 165.619C14.5238 157.898 17.5127 150.531 22.6379 144.745C26.6792 139.509 31.7394 134.415 36.0974 128.897C37.5021 127.07 38.8733 125.207 40.1023 123.275C41.6937 120.83 43.0016 118.214 44.0031 115.474C45.0968 112.429 45.6674 109.221 45.6909 105.986C45.6909 103.397 45.4094 100.817 44.8462 98.2893C44.4479 96.2858 43.9077 94.313 43.2296 92.3861C42.2785 89.5606 41.1402 86.8016 39.8225 84.1273C38.8372 82.0552 37.7491 80.0163 36.659 78.0135C35.2178 75.3437 33.7422 72.7431 32.301 70.2122C32.0561 69.7547 31.809 69.3343 31.5641 68.912C30.6845 67.3303 29.8066 65.8543 29.0332 64.4147C23.4321 55.7088 20.6586 45.4847 21.0922 35.1418C21.0922 14.5849 39.5062 0.808774 56.2323 0.000509296C57.4281 -0.0691408 58.5875 7.02828 59.7472 7.02828C80.831 7.02828 85.7867 19.5734 88.8079 24.5991C90.426 28.2346 92.4664 31.6671 94.8869 34.8256C101.915 41.8533 119.486 43.8558 123 47.3707Z" fill="#FB7B76"/>
<path d="M44.1435 62.6567L33.6004 69.6848C33.2149 69.961 32.7692 70.1415 32.3001 70.2113C32.0547 69.7545 31.8081 69.3338 31.5631 68.9114C30.6836 67.3297 29.8057 65.8537 29.0322 64.4141C29.2307 64.1997 29.4548 64.0107 29.6996 63.8512L40.2422 56.8231C41.0154 56.3695 41.9327 56.2284 42.8065 56.4288C43.6802 56.6291 44.4444 57.1558 44.9427 57.901C45.441 58.6461 45.6357 59.5536 45.4871 60.4376C45.3384 61.3216 44.858 62.1154 44.1435 62.6567ZM54.2982 76.9228L40.2426 83.951C40.1091 84.0248 39.9679 84.0838 39.8215 84.1267C38.8363 82.0546 37.7482 80.0157 36.6581 78.0129C36.7869 77.877 36.9426 77.7694 37.1153 77.697L51.1708 70.6689C51.5858 70.4075 52.051 70.236 52.5363 70.1653C53.0216 70.0946 53.5164 70.1262 53.9887 70.2583C54.461 70.3903 54.9005 70.6198 55.2788 70.9319C55.6571 71.244 55.9658 71.6319 56.1852 72.0706C56.4045 72.5092 56.5296 72.989 56.5524 73.4789C56.5751 73.9688 56.495 74.458 56.3173 74.9151C56.1395 75.3722 55.8681 75.7871 55.5203 76.1329C55.1726 76.4787 54.7563 76.7475 54.2982 76.9228ZM64.5594 91.1201L46.989 98.1478C46.5771 98.3172 46.1352 98.4012 45.6899 98.3949C45.4051 98.3944 45.1214 98.3587 44.8452 98.2888C44.447 96.2852 43.9068 94.3125 43.2287 92.3855C43.5577 92.0498 43.9531 91.7864 44.3897 91.6121L61.9589 84.5839C62.5329 84.356 63.1566 84.283 63.7677 84.3721C64.3787 84.4613 64.9556 84.7094 65.4406 85.0917C65.9254 85.4743 66.3009 85.9778 66.5293 86.5516C66.7577 87.1255 66.8309 87.7493 66.7416 88.3604C66.6523 88.9715 66.4036 89.5484 66.0205 90.0328C65.6374 90.5173 65.1335 90.8923 64.5594 91.1201ZM66.7028 116.668C66.5412 117.462 66.11 118.175 65.4823 118.687C64.8547 119.2 64.0693 119.479 63.2592 119.478C63.0365 119.474 62.8133 119.45 62.5918 119.409L45.021 115.894C44.6572 115.821 44.3111 115.678 44.0021 115.473C44.7569 113.372 45.2638 111.19 45.5126 108.972C45.8056 108.93 46.1037 108.942 46.3925 109.007L63.963 112.522C64.4152 112.614 64.8448 112.794 65.2272 113.052C65.6097 113.311 65.9375 113.642 66.192 114.027C66.4464 114.412 66.6225 114.843 66.7102 115.296C66.7978 115.749 66.7953 116.216 66.7028 116.668ZM52.12 135.467C51.8056 135.955 51.3737 136.355 50.8639 136.631C50.3542 136.908 49.7831 137.051 49.2032 137.049C48.5123 137.057 47.8362 136.848 47.2704 136.451L36.729 129.423C36.5038 129.266 36.2922 129.09 36.0964 128.897C37.5012 127.07 38.8723 125.206 40.1013 123.275L40.6282 123.591L51.1712 130.619C51.5548 130.873 51.884 131.2 52.1399 131.582C52.3957 131.965 52.573 132.394 52.6614 132.845C52.7491 133.296 52.7464 133.76 52.6535 134.21C52.5606 134.661 52.3792 135.088 52.12 135.467Z" fill="#FF5364"/>
<path d="M108.943 105.985C108.922 112.03 107.495 117.986 104.774 123.383C102.054 128.781 98.1148 133.471 93.2688 137.084C86.8735 141.828 74.7856 142.636 63.2949 144.358C63.2949 144.358 98.2597 122.115 72.1154 67.4355C75.2009 67.6362 78.2603 68.1303 81.2521 68.9112C97.6871 73.7543 108.963 88.8513 108.943 105.985Z" fill="#FF5364"/>
<path d="M80.8313 28.1141C80.8313 31.9959 77.6849 35.1419 73.8032 35.1419C69.9214 35.1419 66.7754 31.9955 66.7754 28.1141C66.7754 24.2323 69.9218 21.0859 73.8032 21.0859C77.6845 21.0859 80.8313 24.2323 80.8313 28.1141Z" fill="#2C2F38"/>
<path d="M73.8023 24.599C73.799 25.4002 73.5219 26.1762 73.017 26.7983C72.5121 27.4205 71.8097 27.8514 71.0264 28.0196C70.243 28.1878 69.4257 28.0833 68.7099 27.7232C67.9941 27.3632 67.4228 26.7694 67.0908 26.0401C67.4345 24.9514 68.0354 23.9615 68.8427 23.1542C69.65 22.3469 70.6399 21.746 71.7286 21.4023C72.3452 21.6791 72.8688 22.128 73.2367 22.695C73.6045 23.262 73.8009 23.9231 73.8023 24.599Z" fill="white"/>
</svg>
