<svg width="1920" height="439" viewBox="0 0 1920 439" fill="none" xmlns="http://www.w3.org/2000/svg">
<path opacity="0.1" d="M1202.49 162.31C1081.48 183.51 928.409 166.81 867 155.81V169.81C888.331 175.81 953.877 189.11 1045.41 194.31C1159.82 200.81 1221.88 194.81 1365.38 166.81C1508.88 138.81 1652.39 141.31 1757.1 159.31C1840.88 173.71 1900.61 184.977 1920 188.81V168.31C1910.95 168.31 1881.22 166.51 1834.67 159.31C1776.5 150.31 1753.23 136.81 1681.48 128.31C1609.72 119.81 1528.28 115.31 1439.07 122.81C1349.87 130.31 1353.75 135.81 1202.49 162.31Z" fill="white"/>
<path opacity="0.1" d="M298.641 295.81C165.222 302.21 43.9558 281.144 0 269.81V313.81C9.69613 316.977 51.1956 323.31 139.624 323.31C250.16 323.31 298.641 316.31 413.055 292.81C527.47 269.31 694.243 258.31 851.32 292.81C976.982 320.41 1038.13 323.643 1053 321.81V287.81C1047.83 287.31 1032.83 285.61 1014.22 282.81C990.945 279.31 965.735 272.31 923.072 262.31C880.409 252.31 746.602 236.81 618.613 249.81C490.624 262.81 465.414 287.81 298.641 295.81Z" fill="white"/>
<path opacity="0.1" d="M1173.4 407.326C1032.22 421.726 910.309 406.992 867 397.826V410.826C871.525 412.326 887.556 416.626 915.481 421.826C950.387 428.326 1148.19 457.826 1320.78 418.326C1493.37 378.826 1667.9 378.826 1757.1 399.826C1828.47 416.626 1895.44 427.492 1920 430.826V410.826C1903.19 409.659 1860.27 405.826 1823.04 399.826C1776.5 392.326 1681.48 358.326 1506.94 362.326C1332.41 366.326 1349.87 389.326 1173.4 407.326Z" fill="white"/>
<path opacity="0.1" d="M252.099 51.8114C129.54 53.0114 32.9669 33.3115 0 23.3115V68.3114C3.23204 70.1447 30.2519 74.6114 112.475 77.8113C215.254 81.8113 279.249 75.8113 360.696 59.8114C442.144 43.8115 630.249 2.31164 808.657 40.3115C951.385 70.7114 1031.02 77.6447 1053 77.3113V42.8115C1034.9 39.9781 984.739 31.4115 928.89 19.8115C859.077 5.31158 746.602 -7.18837 620.552 4.81158C494.503 16.8115 405.298 50.3114 252.099 51.8114Z" fill="white"/>
</svg>
