<svg width="178" height="178" viewBox="0 0 178 178" fill="none" xmlns="http://www.w3.org/2000/svg">
<g filter="url(#filter0_d_529_5021)">
<circle cx="89" cy="88.9996" r="72" transform="rotate(-15 89 88.9996)" fill="#CF9CA3"/>
<circle cx="88.9997" cy="88.9999" r="62" transform="rotate(-15 88.9997 88.9999)" fill="#CF9CA3" stroke="white" stroke-width="2"/>
<path d="M53.4524 112.407C53.1236 112.495 52.8426 112.476 52.6093 112.351C52.3841 112.212 52.2259 111.972 52.1349 111.632L50.47 105.419C50.376 105.068 50.3947 104.787 50.526 104.576C50.6653 104.351 50.8994 104.194 51.2281 104.106C51.5569 104.018 51.8324 104.038 52.0547 104.166C52.2741 104.284 52.4308 104.518 52.5247 104.868L53.1149 107.071L56.6655 106.12L56.0753 103.917C55.9813 103.566 56 103.285 56.1313 103.074C56.2597 102.852 56.4882 102.696 56.817 102.608C57.1457 102.52 57.4213 102.54 57.6436 102.669C57.8739 102.783 58.0361 103.016 58.13 103.366L59.7949 109.58C59.886 109.92 59.8633 110.208 59.7269 110.444C59.5986 110.666 59.37 110.821 59.0412 110.909C58.7125 110.997 58.437 110.977 58.2146 110.849C57.9894 110.71 57.8312 110.47 57.7402 110.13L57.0972 107.731L53.5466 108.682L54.1896 111.082C54.2807 111.422 54.2635 111.708 54.1381 111.941C54.0207 112.161 53.7921 112.316 53.4524 112.407Z" fill="white"/>
<path d="M65.0893 109.324C64.5085 109.48 63.9586 109.51 63.4396 109.414C62.9286 109.304 62.4903 109.093 62.1245 108.78C61.7697 108.464 61.5277 108.064 61.3985 107.582C61.2399 106.99 61.2685 106.484 61.4843 106.062C61.6972 105.629 62.1283 105.243 62.7776 104.905C63.4269 104.566 64.3323 104.241 65.4939 103.93L66.3158 103.71L66.6329 104.894L65.8275 105.109C65.148 105.291 64.6144 105.47 64.2266 105.644C63.8387 105.818 63.5791 106.011 63.4478 106.223C63.3246 106.42 63.3011 106.661 63.3775 106.946C63.4744 107.308 63.6797 107.57 63.9934 107.733C64.3071 107.895 64.6886 107.916 65.1379 107.796C65.4995 107.699 65.7953 107.532 66.0252 107.294C66.2632 107.042 66.4247 106.746 66.5098 106.406C66.5949 106.067 66.586 105.705 66.4833 105.321L65.9767 103.431C65.8299 102.883 65.6037 102.521 65.298 102.344C64.9923 102.168 64.5545 102.156 63.9847 102.309C63.6669 102.394 63.332 102.525 62.9799 102.701C62.6389 102.875 62.2905 103.109 61.935 103.404C61.7532 103.558 61.5743 103.636 61.3981 103.636C61.233 103.633 61.0889 103.578 60.966 103.47C60.8402 103.351 60.7552 103.209 60.7112 103.045C60.6672 102.88 60.6684 102.71 60.715 102.533C60.7586 102.345 60.8742 102.185 61.0619 102.052C61.5102 101.709 61.9527 101.432 62.3895 101.221C62.8372 101.007 63.2529 100.849 63.6364 100.746C64.4254 100.534 65.1043 100.482 65.673 100.588C66.2526 100.691 66.7346 100.955 67.1187 101.381C67.5 101.795 67.7934 102.386 67.9989 103.153L69.056 107.098C69.147 107.438 69.1353 107.723 69.0208 107.953C68.9034 108.173 68.6913 108.324 68.3845 108.406C68.0777 108.488 67.8131 108.465 67.5908 108.337C67.3765 108.194 67.2238 107.953 67.1328 107.614L66.9214 106.825L67.0529 106.789C67.0789 107.194 67.0151 107.569 66.8613 107.916C66.7155 108.248 66.4933 108.537 66.1947 108.781C65.8961 109.026 65.5276 109.207 65.0893 109.324Z" fill="white"/>
<path d="M77.1299 106.063C76.8012 106.151 76.5202 106.132 76.2869 106.007C76.0616 105.867 75.9035 105.628 75.8125 105.288L74.2136 99.3211C74.1138 98.9485 74.1361 98.6371 74.2805 98.387C74.4249 98.1369 74.6834 97.962 75.056 97.8621L80.3654 96.4395C80.738 96.3396 81.0493 96.3619 81.2994 96.5063C81.5495 96.6507 81.7245 96.9092 81.8243 97.2818L83.4232 103.249C83.5142 103.588 83.4915 103.876 83.3552 104.113C83.2268 104.335 82.9982 104.49 82.6695 104.578C82.3407 104.666 82.0652 104.646 81.8429 104.518C81.6176 104.379 81.4595 104.139 81.3685 103.799L79.8929 98.2926L76.3917 99.2308L77.8672 104.737C77.9582 105.077 77.941 105.364 77.8156 105.597C77.6982 105.816 77.4697 105.972 77.1299 106.063Z" fill="white"/>
<path d="M90.0337 102.64C89.1242 102.884 88.2951 102.924 87.5466 102.761C86.798 102.597 86.1593 102.251 85.6302 101.724C85.1122 101.193 84.7387 100.5 84.5096 99.6454C84.2865 98.8126 84.2611 98.0383 84.4334 97.3227C84.6167 96.6041 84.9627 95.9887 85.4715 95.4765C85.9883 94.9504 86.6357 94.5832 87.4138 94.3747C87.9836 94.222 88.5181 94.1786 89.0173 94.2445C89.5275 94.3075 89.9885 94.4717 90.4003 94.7372C90.823 94.9998 91.1841 95.3611 91.4835 95.8212C91.791 96.2673 92.0284 96.8027 92.1958 97.4274C92.2486 97.6246 92.2185 97.7971 92.1054 97.9449C92.0003 98.0788 91.8218 98.1795 91.5697 98.247L86.2932 99.6608L85.9761 98.4773L90.5951 97.2396L90.3981 97.5567C90.2631 97.0526 90.0733 96.6512 89.8289 96.3526C89.5954 96.0511 89.3127 95.8508 88.9808 95.7518C88.6569 95.6389 88.2867 95.6383 87.8703 95.7499C87.4101 95.8732 87.0449 96.0885 86.7749 96.3958C86.5129 96.6891 86.3471 97.0565 86.2774 97.498C86.2158 97.9256 86.257 98.4079 86.4008 98.9449L86.4317 99.0599C86.6725 99.9585 87.0613 100.577 87.5981 100.914C88.1429 101.238 88.8263 101.29 89.6482 101.07C89.9331 100.993 90.2421 100.875 90.5751 100.716C90.9162 100.542 91.2222 100.325 91.493 100.065C91.6879 99.8714 91.8759 99.7623 92.0571 99.7372C92.2354 99.7012 92.3885 99.7248 92.5165 99.8079C92.6555 99.8882 92.7579 100.008 92.8239 100.166C92.8869 100.314 92.8966 100.481 92.853 100.669C92.8203 100.854 92.7215 101.033 92.5566 101.207C92.2376 101.551 91.8422 101.85 91.3705 102.106C90.9067 102.348 90.4611 102.526 90.0337 102.64Z" fill="white"/>
<path d="M97.0093 103.907C96.6805 103.995 96.405 103.975 96.1826 103.847C95.9603 103.718 95.8037 103.484 95.7126 103.145L93.2505 93.9559C93.1595 93.6162 93.1782 93.3352 93.3065 93.1128C93.4349 92.8905 93.6579 92.7368 93.9757 92.6516C94.3045 92.5635 94.58 92.5837 94.8023 92.712C95.0247 92.8404 95.1813 93.0744 95.2724 93.4141L95.6159 94.6963L95.303 94.2516C95.3176 93.6487 95.5314 93.1098 95.9445 92.635C96.3685 92.1573 96.9203 91.8274 97.5997 91.6454C98.301 91.4574 98.9602 91.4629 99.5773 91.6616C100.205 91.8575 100.751 92.2281 101.214 92.7734C101.674 93.3078 102.021 94.0079 102.253 94.8736C102.482 95.7284 102.533 96.5132 102.408 97.2281C102.279 97.932 101.998 98.5243 101.563 99.0049C101.128 99.4856 100.554 99.8214 99.8416 100.012C99.1731 100.191 98.5428 100.184 97.9506 99.9904C97.3555 99.7857 96.8983 99.4384 96.5791 98.9484L96.7763 98.8956L97.7674 102.594C97.8584 102.934 97.8342 103.216 97.6949 103.442C97.5666 103.664 97.338 103.819 97.0093 103.907ZM98.8478 98.6048C99.2533 98.4961 99.583 98.3021 99.837 98.0226C100.091 97.7431 100.249 97.3896 100.31 96.962C100.38 96.5205 100.337 96.0094 100.181 95.4286C99.9465 94.5519 99.5855 93.9498 99.0984 93.6222C98.6083 93.2837 98.0565 93.1967 97.4428 93.3611C97.0373 93.4698 96.7076 93.6638 96.4536 93.9433C96.1967 94.2118 96.0334 94.5668 95.9638 95.0083C95.9022 95.4359 95.9492 95.9401 96.1048 96.5209C96.3368 97.3866 96.6993 97.9942 97.1922 98.3437C97.6823 98.6822 98.2342 98.7692 98.8478 98.6048Z" fill="white"/>
<path d="M106.262 98.1157C105.933 98.2038 105.658 98.1837 105.435 98.0553C105.213 97.927 105.058 97.6984 104.97 97.3697L103.362 91.3699C103.274 91.0411 103.294 90.7656 103.422 90.5432C103.551 90.3209 103.779 90.1657 104.108 90.0776L107.428 89.1879C108.119 89.0029 108.7 88.9354 109.171 88.9852C109.654 89.0322 110.036 89.1881 110.318 89.453C110.598 89.707 110.798 90.0587 110.918 90.508C111.053 91.0121 110.992 91.4864 110.736 91.9311C110.487 92.3618 110.088 92.6919 109.539 92.9213L109.477 92.6911C110.201 92.5441 110.792 92.603 111.251 92.8677C111.72 93.1295 112.032 93.5453 112.184 94.1152C112.369 94.8056 112.253 95.424 111.836 95.9704C111.418 96.5168 110.711 96.9236 109.714 97.1908L106.262 98.1157ZM106.81 96.6122L109.194 95.9735C109.643 95.8531 109.958 95.669 110.138 95.421C110.329 95.1701 110.376 94.8638 110.28 94.5022C110.183 94.1406 109.989 93.8989 109.698 93.7772C109.418 93.6526 109.053 93.6505 108.604 93.7709L106.22 94.4095L106.81 96.6122ZM105.881 93.1438L108.117 92.5448C108.511 92.4391 108.794 92.2692 108.967 92.0351C109.136 91.7901 109.176 91.5032 109.088 91.1745C109 90.8457 108.825 90.6285 108.561 90.5228C108.295 90.4062 107.965 90.4008 107.57 90.5065L105.335 91.1055L105.881 93.1438Z" fill="white"/>
<path d="M118.311 95.0632C117.479 95.2864 116.71 95.3103 116.005 95.1351C115.3 94.9598 114.694 94.6053 114.187 94.0717C113.677 93.5272 113.308 92.8275 113.079 91.9727C112.906 91.3262 112.845 90.7259 112.896 90.1719C112.955 89.604 113.117 89.0907 113.382 88.6322C113.644 88.1627 114.002 87.7673 114.456 87.4459C114.907 87.1136 115.445 86.8638 116.07 86.6964C116.902 86.4732 117.671 86.4493 118.376 86.6246C119.081 86.7998 119.686 87.1543 120.194 87.6879C120.701 88.2215 121.069 88.9157 121.298 89.7705C121.471 90.417 121.528 91.0243 121.469 91.5922C121.42 92.1571 121.265 92.6744 121.004 93.1439C120.739 93.6024 120.381 93.9978 119.93 94.3301C119.475 94.6515 118.936 94.8959 118.311 95.0632ZM117.893 93.5016C118.298 93.393 118.628 93.1989 118.882 92.9195C119.136 92.64 119.294 92.2865 119.356 91.8589C119.425 91.4174 119.382 90.9062 119.227 90.3254C118.992 89.4488 118.631 88.8466 118.144 88.5191C117.653 88.1806 117.102 88.0935 116.488 88.258C116.082 88.3666 115.753 88.5607 115.499 88.8402C115.242 89.1087 115.079 89.4637 115.009 89.9052C114.947 90.3328 114.994 90.8369 115.15 91.4178C115.382 92.2835 115.744 92.8911 116.237 93.2405C116.727 93.579 117.279 93.6661 117.893 93.5016Z" fill="white"/>
<path d="M128.303 92.386C127.394 92.6297 126.564 92.6698 125.816 92.5063C125.067 92.3427 124.429 91.9971 123.9 91.4694C123.382 90.9387 123.008 90.246 122.779 89.3912C122.556 88.5583 122.53 87.7841 122.703 87.0684C122.886 86.3498 123.232 85.7344 123.741 85.2223C124.258 84.6962 124.905 84.3289 125.683 84.1204C126.253 83.9677 126.787 83.9244 127.287 83.9903C127.797 84.0532 128.258 84.2175 128.67 84.483C129.092 84.7456 129.453 85.1069 129.753 85.5669C130.06 86.0131 130.298 86.5485 130.465 87.1731C130.518 87.3704 130.488 87.5429 130.375 87.6906C130.27 87.8245 130.091 87.9252 129.839 87.9927L124.563 89.4066L124.245 88.2231L128.864 86.9854L128.667 87.3024C128.532 86.7983 128.343 86.397 128.098 86.0984C127.865 85.7968 127.582 85.5966 127.25 85.4976C126.926 85.3847 126.556 85.384 126.14 85.4956C125.679 85.619 125.314 85.8342 125.044 86.1415C124.782 86.4349 124.616 86.8023 124.547 87.2438C124.485 87.6714 124.526 88.1537 124.67 88.6906L124.701 88.8057C124.942 89.7043 125.331 90.3225 125.867 90.6602C126.412 90.984 127.096 91.0358 127.918 90.8156C128.202 90.7392 128.511 90.6212 128.844 90.4615C129.186 90.2879 129.492 90.0708 129.762 89.8104C129.957 89.6172 130.145 89.5081 130.326 89.483C130.505 89.447 130.658 89.4706 130.786 89.5537C130.925 89.6339 131.027 89.7533 131.093 89.9118C131.156 90.0593 131.166 90.2271 131.122 90.4149C131.09 90.5999 130.991 90.779 130.826 90.9524C130.507 91.2963 130.112 91.596 129.64 91.8516C129.176 92.0934 128.73 92.2715 128.303 92.386Z" fill="white"/>
<path d="M61.2779 127.127C60.5792 127.314 59.8828 127.427 59.1886 127.466C58.4981 127.519 57.8595 127.492 57.2729 127.385C56.9933 127.328 56.7748 127.225 56.6175 127.076C56.4566 126.913 56.3504 126.736 56.299 126.545C56.2576 126.335 56.2716 126.141 56.3408 125.961C56.4237 125.777 56.5624 125.637 56.7568 125.541C56.9513 125.445 57.2039 125.429 57.5145 125.492C58.0079 125.58 58.5364 125.607 59.1 125.574C59.6736 125.523 60.2139 125.43 60.7207 125.294C61.5974 125.059 62.1931 124.789 62.5079 124.485C62.819 124.166 62.9159 123.788 62.7984 123.35C62.692 122.952 62.4674 122.69 62.1247 122.561C61.782 122.433 61.3435 122.44 60.8093 122.583L58.9806 123.073C58.6655 123.158 58.3969 123.142 58.1748 123.025C57.949 122.895 57.7976 122.686 57.7205 122.398C57.6434 122.11 57.6737 121.867 57.8114 121.669C57.9454 121.457 58.17 121.308 58.485 121.224L60.0672 120.8C60.5466 120.672 60.8976 120.475 61.1202 120.21C61.3391 119.931 61.399 119.606 61.2999 119.237C61.1935 118.839 60.9465 118.575 60.559 118.444C60.1852 118.309 59.5806 118.354 58.745 118.578C58.2655 118.706 57.8126 118.879 57.3863 119.096C56.9563 119.299 56.5478 119.556 56.1608 119.865C55.8688 120.09 55.5953 120.192 55.3404 120.173C55.0955 120.136 54.8958 120.02 54.7412 119.827C54.5866 119.633 54.5192 119.409 54.539 119.154C54.5588 118.899 54.6941 118.665 54.9451 118.451C55.4744 118.015 56.0444 117.65 56.6552 117.354C57.2797 117.054 57.955 116.807 58.681 116.613C60.0234 116.253 61.1118 116.233 61.9462 116.553C62.7907 116.855 63.3322 117.451 63.5707 118.342C63.7396 118.972 63.6704 119.563 63.3632 120.115C63.0524 120.654 62.5536 121.066 61.867 121.353L61.7899 121.065C62.6539 120.892 63.3843 120.961 63.9812 121.271C64.5781 121.581 64.9757 122.106 65.1739 122.845C65.4198 123.763 65.212 124.604 64.5507 125.369C63.8893 126.133 62.7983 126.719 61.2779 127.127Z" fill="white"/>
<path d="M71.5624 124.371C70.8364 124.565 70.149 124.603 69.5003 124.483C68.8616 124.346 68.3136 124.081 67.8564 123.69C67.4129 123.295 67.1104 122.796 66.9489 122.193C66.7507 121.454 66.7865 120.82 67.0562 120.293C67.3223 119.752 67.8612 119.27 68.6728 118.847C69.4844 118.424 70.6162 118.018 72.0682 117.628L73.0956 117.353L73.492 118.833L72.4851 119.102C71.6359 119.33 70.9688 119.553 70.484 119.771C69.9992 119.989 69.6747 120.23 69.5106 120.494C69.3565 120.741 69.3272 121.042 69.4226 121.398C69.5437 121.851 69.8004 122.178 70.1925 122.381C70.5847 122.585 71.0615 122.611 71.6232 122.461C72.0752 122.339 72.4449 122.13 72.7323 121.833C73.0297 121.518 73.2316 121.149 73.338 120.724C73.4444 120.299 73.4333 119.847 73.3049 119.367L72.6717 117.004C72.4882 116.319 72.2054 115.867 71.8233 115.646C71.4412 115.425 70.894 115.411 70.1817 115.601C69.7844 115.708 69.3658 115.871 68.9257 116.092C68.4994 116.309 68.064 116.602 67.6195 116.971C67.3923 117.164 67.1686 117.26 66.9485 117.261C66.742 117.257 66.562 117.188 66.4083 117.053C66.251 116.904 66.1449 116.727 66.0898 116.522C66.0347 116.316 66.0363 116.103 66.0945 115.882C66.149 115.647 66.2936 115.447 66.5282 115.281C67.0885 114.852 67.6417 114.505 68.1877 114.242C68.7473 113.974 69.2669 113.776 69.7463 113.648C70.7326 113.384 71.5812 113.318 72.292 113.45C73.0166 113.579 73.619 113.91 74.0992 114.442C74.5758 114.96 74.9425 115.698 75.1994 116.657L76.5208 121.589C76.6346 122.013 76.6199 122.37 76.4769 122.658C76.3301 122.932 76.065 123.12 75.6814 123.223C75.2979 123.326 74.9671 123.297 74.6892 123.137C74.4214 122.959 74.2305 122.657 74.1168 122.233L73.8525 121.247L74.0169 121.203C74.0494 121.708 73.9696 122.177 73.7774 122.61C73.5952 123.026 73.3175 123.387 72.9442 123.692C72.5709 123.998 72.1103 124.224 71.5624 124.371Z" fill="white"/>
<path d="M81.0349 121.789C80.624 121.899 80.2727 121.875 79.9811 121.719C79.6996 121.544 79.5019 121.245 79.3881 120.82L77.307 113.054C77.1895 112.615 77.2129 112.264 77.377 112C77.5511 111.718 77.8437 111.522 78.2546 111.412C78.6655 111.302 79.01 111.327 79.2879 111.488C79.5621 111.634 79.7579 111.927 79.8754 112.365L80.6131 115.119L85.0514 113.929L84.3136 111.176C84.1962 110.738 84.2195 110.386 84.3836 110.122C84.544 109.844 84.8297 109.65 85.2407 109.54C85.6516 109.43 85.996 109.455 86.274 109.616C86.5619 109.759 86.7646 110.05 86.882 110.488L88.9631 118.255C89.0769 118.679 89.0486 119.039 88.8781 119.335C88.7177 119.613 88.432 119.807 88.021 119.917C87.6101 120.027 87.2657 120.002 86.9878 119.841C86.7062 119.667 86.5085 119.368 86.3947 118.943L85.5909 115.943L81.1527 117.132L81.9565 120.132C82.0703 120.557 82.0488 120.915 81.892 121.207C81.7453 121.481 81.4596 121.675 81.0349 121.789Z" fill="white"/>
<path d="M99.659 116.798C99.2754 116.901 98.9534 116.877 98.6929 116.727C98.4287 116.563 98.2452 116.289 98.1424 115.905L97.4927 113.481L96.4243 113.767C96.027 113.873 95.7002 114.078 95.4439 114.382C95.2013 114.682 95.0281 115.022 94.9244 115.402L94.3911 117.439C94.2975 117.802 94.1333 118.066 93.8988 118.232C93.6816 118.407 93.4336 118.496 93.155 118.497C92.8901 118.495 92.6448 118.428 92.419 118.298C92.1895 118.154 92.0125 117.959 91.888 117.713C91.7771 117.464 91.7722 117.172 91.8732 116.836L92.2239 115.597C92.3339 115.186 92.5459 114.799 92.8597 114.436C93.1735 114.073 93.5359 113.836 93.9468 113.726L94.3578 113.616L94.4183 113.842C93.2403 114.158 92.2664 114.14 91.4969 113.788C90.7273 113.436 90.2122 112.774 89.9516 111.802C89.7791 111.158 89.7742 110.564 89.9371 110.022C90.1137 109.475 90.4566 109.002 90.9658 108.601C91.4714 108.186 92.1489 107.865 92.9982 107.638L96.8199 106.614C97.2309 106.504 97.5753 106.529 97.8532 106.689C98.1448 106.846 98.3457 107.13 98.4558 107.541L100.526 115.267C100.629 115.65 100.6 115.981 100.439 116.259C100.275 116.523 100.015 116.703 99.659 116.798ZM94.8427 112.385L97.0413 111.796L96.1824 108.59L93.9838 109.18C93.3126 109.359 92.8512 109.637 92.5995 110.013C92.3442 110.375 92.2826 110.803 92.4147 111.296C92.5505 111.803 92.8213 112.156 93.2272 112.355C93.633 112.555 94.1715 112.565 94.8427 112.385Z" fill="white"/>
<path d="M107.17 114.786C106.759 114.896 106.408 114.872 106.116 114.716C105.835 114.542 105.637 114.242 105.523 113.818L103.679 106.934L101.172 107.606C100.432 107.804 99.9725 107.568 99.7927 106.896C99.7082 106.581 99.7381 106.309 99.8821 106.08C100.04 105.846 100.29 105.684 100.632 105.592L108.214 103.561C108.954 103.362 109.414 103.599 109.594 104.27C109.682 104.599 109.654 104.878 109.51 105.108C109.362 105.323 109.11 105.479 108.754 105.574L106.247 106.246L108.092 113.129C108.205 113.554 108.184 113.912 108.027 114.204C107.88 114.478 107.595 114.672 107.17 114.786Z" fill="white"/>
<path d="M114.663 112.778C114.402 112.848 114.17 112.859 113.967 112.81C113.763 112.762 113.586 112.648 113.435 112.468C113.297 112.285 113.186 112.036 113.102 111.721L111.021 103.954C110.914 103.557 110.936 103.228 111.087 102.967C111.234 102.693 111.492 102.506 111.862 102.407C112.232 102.308 112.542 102.342 112.792 102.51C113.053 102.661 113.236 102.934 113.343 103.332L115.044 109.681L114.51 109.824L117.774 101.704C117.873 101.472 118.008 101.237 118.18 101.001C118.351 100.764 118.629 100.594 119.012 100.491C119.273 100.421 119.498 100.413 119.688 100.464C119.892 100.513 120.062 100.628 120.199 100.812C120.347 100.978 120.462 101.218 120.547 101.534L122.633 109.321C122.736 109.704 122.714 110.033 122.567 110.308C122.434 110.578 122.183 110.763 121.813 110.862C121.43 110.965 121.106 110.934 120.842 110.77C120.591 110.602 120.414 110.327 120.312 109.943L118.605 103.573L119.16 103.425L115.881 111.571C115.795 111.799 115.667 112.032 115.495 112.269C115.337 112.502 115.06 112.672 114.663 112.778Z" fill="white"/>
<path d="M130.855 108.483C129.718 108.788 128.682 108.838 127.746 108.634C126.81 108.429 126.012 107.997 125.351 107.338C124.703 106.674 124.236 105.808 123.95 104.74C123.671 103.699 123.639 102.731 123.855 101.836C124.084 100.938 124.516 100.169 125.152 99.5287C125.798 98.8711 126.607 98.412 127.58 98.1514C128.292 97.9606 128.961 97.9063 129.585 97.9887C130.222 98.0674 130.798 98.2727 131.313 98.6046C131.842 98.9328 132.293 99.3845 132.667 99.9596C133.052 100.517 133.348 101.186 133.558 101.967C133.624 102.214 133.586 102.429 133.445 102.614C133.313 102.782 133.09 102.907 132.775 102.992L126.179 104.759L125.783 103.28L131.557 101.733L131.311 102.129C131.142 101.499 130.905 100.997 130.599 100.624C130.307 100.247 129.954 99.9966 129.539 99.8729C129.134 99.7318 128.671 99.7309 128.151 99.8704C127.575 100.025 127.119 100.294 126.781 100.678C126.454 101.044 126.247 101.504 126.16 102.056C126.083 102.59 126.134 103.193 126.314 103.864L126.352 104.008C126.653 105.131 127.139 105.904 127.81 106.326C128.492 106.731 129.346 106.796 130.373 106.52C130.729 106.425 131.115 106.277 131.532 106.078C131.958 105.861 132.341 105.589 132.679 105.264C132.923 105.022 133.158 104.886 133.384 104.855C133.607 104.81 133.799 104.839 133.959 104.943C134.132 105.043 134.26 105.192 134.343 105.391C134.422 105.575 134.434 105.785 134.379 106.02C134.338 106.251 134.215 106.475 134.009 106.691C133.61 107.121 133.116 107.496 132.526 107.815C131.946 108.118 131.389 108.34 130.855 108.483Z" fill="white"/>
<path d="M44.4011 90.5042C43.7025 90.6913 43.0579 90.6145 42.4674 90.2735C41.8769 89.9326 41.488 89.4128 41.3008 88.7142C41.1136 88.0156 41.1936 87.3827 41.5408 86.8154C41.8817 86.2249 42.4015 85.836 43.1001 85.6488L50.0164 83.7956C50.715 83.6084 51.3595 83.6853 51.9501 84.0263C52.5344 84.3439 52.9201 84.852 53.1073 85.5507C53.2945 86.2493 53.2176 86.8938 52.8767 87.4844C52.5357 88.0749 52.0159 88.4638 51.3173 88.651L44.4011 90.5042Z" fill="white"/>
<path d="M67.8947 92.0711C66.7769 92.3706 65.5666 92.5576 64.2637 92.6322C62.9609 92.7067 61.7138 92.6166 60.5223 92.3618C59.8062 92.2043 59.2515 91.9036 58.858 91.46C58.4817 90.9868 58.2566 90.473 58.183 89.9187C58.1326 89.3581 58.2143 88.8246 58.428 88.3181C58.665 87.8053 59.024 87.4221 59.5051 87.1684C60.0033 86.8851 60.6104 86.8223 61.3265 86.9798C62.1948 87.1465 63.0615 87.2138 63.9264 87.1817C64.8147 87.1434 65.6198 87.0275 66.3417 86.8341C67.1334 86.6219 67.7775 86.3245 68.274 85.9419C68.7705 85.5593 69.0992 85.1093 69.2601 84.592C69.4443 84.0684 69.4552 83.5039 69.293 82.8984C69.0434 81.967 68.5325 81.3177 67.7602 80.9505C66.988 80.5834 66.0779 80.5402 65.03 80.821C64.5642 80.9458 64.0706 81.1529 63.5492 81.4424C63.051 81.7257 62.5639 82.1432 62.0878 82.6951C61.8691 82.9034 61.5635 83.16 61.1709 83.4649C60.7721 83.7465 60.3399 83.9496 59.8742 84.0744C59.0358 84.2991 58.3657 84.2665 57.8637 83.9767C57.3618 83.6869 57.0141 83.181 56.8206 82.4591L53.9941 71.9101C53.7569 71.0252 53.8089 70.2875 54.1498 69.697C54.514 69.1002 55.127 68.6864 55.9886 68.4555L66.9567 65.5166C67.8183 65.2857 68.5413 65.3291 69.1256 65.6468C69.7099 65.9644 70.1175 66.5541 70.3483 67.4157C70.573 68.254 70.5117 68.9568 70.1645 69.5241C69.8173 70.0913 69.2129 70.4904 68.3513 70.7212L60.7015 72.771L62.171 78.2551L60.7039 78.6482C61.0881 77.8464 61.6906 77.1608 62.5114 76.5914C63.326 75.9988 64.2689 75.5589 65.3401 75.2719C66.9004 74.8539 68.3648 74.8234 69.7333 75.1805C71.0957 75.5143 72.262 76.1876 73.2323 77.2006C74.2258 78.2072 74.9347 79.5023 75.359 81.0859C75.8083 82.7625 75.8086 84.3473 75.3601 85.8402C74.9285 87.3036 74.0728 88.5812 72.7929 89.6729C71.5301 90.7351 69.8973 91.5345 67.8947 92.0711Z" fill="white"/>
<path d="M89.0139 86.4122C85.9866 87.2234 83.3615 86.7412 81.1387 84.9657C78.9329 83.1607 77.284 80.2206 76.192 76.1454C75.4558 73.3976 75.199 70.9954 75.4217 68.9391C75.6382 66.8594 76.3171 65.155 77.4585 63.8258C78.5999 62.4967 80.1836 61.5607 82.2095 61.0178C85.2601 60.2004 87.8758 60.6476 90.0567 62.3595C92.2375 64.0714 93.877 66.9765 94.9752 71.075C95.7053 73.7996 95.9652 76.2134 95.755 78.3163C95.5447 80.4193 94.8751 82.1586 93.7462 83.5344C92.6173 84.9101 91.0399 85.8694 89.0139 86.4122ZM87.6474 81.3124C88.7652 81.0129 89.4297 80.1859 89.6408 78.8315C89.869 77.4475 89.6212 75.4049 88.8973 72.7036C88.1798 70.0256 87.3887 68.191 86.524 67.1996C85.6765 66.1788 84.6938 65.8181 83.576 66.1177C82.4582 66.4172 81.7759 67.224 81.529 68.5381C81.2991 69.8226 81.543 71.8039 82.2606 74.4819C82.9844 77.1832 83.7794 79.0792 84.6457 80.1699C85.5291 81.2311 86.5297 81.6119 87.6474 81.3124Z" fill="white"/>
<path d="M111.888 79.1975C111.728 79.8142 111.438 80.2665 111.016 80.5543C110.6 80.8654 110.155 81.022 109.682 81.0241C109.208 81.0262 108.764 80.9079 108.351 80.6693C107.938 80.4306 107.631 80.0761 107.43 79.6058C107.229 79.1355 107.208 78.592 107.367 77.9753L113.949 53.6364C114.125 52.9902 114.413 52.5263 114.812 52.2447C115.204 51.9398 115.637 51.7864 116.111 51.7842C116.608 51.7759 117.054 51.9058 117.451 52.174C117.864 52.4126 118.171 52.7671 118.372 53.2374C118.59 53.6782 118.608 54.2101 118.425 54.833L111.888 79.1975ZM104.324 71.2282C102.228 71.7898 100.414 71.5396 98.8813 70.4777C97.3659 69.3862 96.3024 67.6994 95.6909 65.4173C95.2791 63.8803 95.1912 62.4812 95.4273 61.2199C95.6634 59.9587 96.1894 58.8942 97.0052 58.0267C97.821 57.1592 98.9159 56.5414 100.29 56.1732C102.362 55.6179 104.153 55.8743 105.662 56.9425C107.189 57.9811 108.254 59.6299 108.86 61.8887C109.265 63.4024 109.353 64.8015 109.123 66.0861C108.917 67.3644 108.409 68.449 107.599 69.3398C106.789 70.2306 105.698 70.8601 104.324 71.2282ZM103.294 67.3859C103.644 67.2923 103.903 67.0978 104.074 66.8026C104.261 66.4778 104.342 66.032 104.315 65.4652C104.305 64.8689 104.178 64.1166 103.934 63.2084C103.566 61.8345 103.159 60.9203 102.713 60.4658C102.29 60.0051 101.822 59.8434 101.31 59.9806C100.937 60.0805 100.654 60.2811 100.46 60.5826C100.284 60.8546 100.197 61.2771 100.201 61.8502C100.228 62.417 100.367 63.1661 100.616 64.0976C100.99 65.4948 101.392 66.4354 101.821 66.9194C102.244 67.3801 102.735 67.5356 103.294 67.3859ZM125.537 76.6258C123.465 77.1811 121.662 76.9278 120.13 75.8659C118.621 74.7977 117.56 73.1225 116.949 70.8404C116.531 69.2802 116.428 67.8725 116.641 66.6175C116.877 65.3562 117.403 64.2918 118.219 63.4243C119.058 62.5505 120.153 61.9327 121.504 61.5708C123.576 61.0154 125.379 61.2687 126.911 62.3307C128.444 63.3926 129.512 65.053 130.118 67.3118C130.523 68.8255 130.611 70.2246 130.381 71.5092C130.168 72.7642 129.657 73.8372 128.848 74.728C128.038 75.6188 126.935 76.2514 125.537 76.6258ZM124.517 72.8183C124.89 72.7185 125.161 72.521 125.332 72.2257C125.519 71.9009 125.6 71.4551 125.573 70.8883C125.563 70.292 125.436 69.5397 125.192 68.6315C124.824 67.2576 124.417 66.3434 123.971 65.8889C123.548 65.4282 123.069 65.2696 122.533 65.4131C122.184 65.5067 121.912 65.7043 121.718 66.0058C121.542 66.2777 121.455 66.7002 121.459 67.2733C121.48 67.8168 121.618 68.5659 121.874 69.5207C122.248 70.9179 122.65 71.8585 123.079 72.3425C123.502 72.8033 123.982 72.9619 124.517 72.8183Z" fill="white"/>
</g>
<defs>
<filter id="filter0_d_529_5021" x="12.9821" y="16.9817" width="152.036" height="152.036" filterUnits="userSpaceOnUse" color-interpolation-filters="sRGB">
<feFlood flood-opacity="0" result="BackgroundImageFix"/>
<feColorMatrix in="SourceAlpha" type="matrix" values="0 0 0 0 0 0 0 0 0 0 0 0 0 0 0 0 0 0 127 0" result="hardAlpha"/>
<feOffset dy="4"/>
<feGaussianBlur stdDeviation="2"/>
<feComposite in2="hardAlpha" operator="out"/>
<feColorMatrix type="matrix" values="0 0 0 0 0 0 0 0 0 0 0 0 0 0 0 0 0 0 0.25 0"/>
<feBlend mode="normal" in2="BackgroundImageFix" result="effect1_dropShadow_529_5021"/>
<feBlend mode="normal" in="SourceGraphic" in2="effect1_dropShadow_529_5021" result="shape"/>
</filter>
</defs>
</svg>
