<svg width="83" height="83" viewBox="0 0 83 83" fill="none" xmlns="http://www.w3.org/2000/svg">
<path d="M0 0H83V41.5C83 64.4198 64.4198 83 41.5 83C18.5802 83 0 64.4198 0 41.5V0Z" fill="#116486"/>
<path d="M49.8019 10.6651C49.4787 10.0462 49.4062 9.39955 49.5844 8.72517C49.6009 8.66435 49.6336 8.61473 49.6822 8.57632C50.1877 8.17617 50.6651 8.21032 51.1146 8.67876C51.9152 9.50999 52.6542 10.5296 53.3316 11.7375C53.3544 11.7791 53.386 11.8111 53.4263 11.8335C55.1674 12.8227 56.3761 14.2835 57.0524 16.2159C57.071 16.2703 57.1052 16.3109 57.1549 16.3375C66.4126 21.2689 72.5819 30.4643 73.7781 41.0697C73.9288 42.4142 74.1898 43.4706 74.1261 44.5958C74.122 44.6545 74.0919 44.6839 74.036 44.6839H9.81452C9.75238 44.6839 9.72079 44.6513 9.71975 44.5862L9.70577 43.1233C9.70474 43.0699 9.73011 43.0433 9.7819 43.0433H22.5507C22.6159 43.0433 22.6486 43.0096 22.6486 42.9424V42.1966C22.6486 42.1304 22.6165 42.0973 22.5522 42.0973C20.2126 42.1026 18.0997 41.4107 16.2137 40.0214C16.1722 39.9915 16.1277 39.9835 16.0801 39.9974C14.0356 40.6184 11.9465 40.9534 9.81297 41.0025C9.79083 41.003 9.76938 40.9945 9.75315 40.979C9.73692 40.9635 9.72717 40.9421 9.72597 40.9193L9.67004 39.9173C9.66942 39.9046 9.67126 39.8918 9.67547 39.8798C9.67968 39.8678 9.68617 39.8568 9.69456 39.8474C9.70295 39.838 9.71307 39.8305 9.72433 39.8252C9.73559 39.8198 9.74777 39.8169 9.76015 39.8165C11.5188 39.7589 13.251 39.5086 14.9568 39.0658C14.9674 39.0632 14.9771 39.0577 14.9849 39.0499C14.9927 39.0421 14.9983 39.0323 15.0012 39.0215C15.0041 39.0107 15.004 38.9993 15.0012 38.9885C14.9983 38.9777 14.9926 38.9679 14.9848 38.9602C14.0464 38.0174 13.3675 36.7514 13.4188 35.3989C13.5244 32.5899 17.0076 29.1902 19.4917 31.9336C22.0318 34.7394 20.7252 37.9854 17.5575 39.3651C17.546 39.37 17.536 39.3782 17.5288 39.3886C17.5215 39.3991 17.5172 39.4114 17.5164 39.4243C17.5156 39.4371 17.5183 39.4499 17.5242 39.4612C17.5301 39.4726 17.5389 39.482 17.5497 39.4884C19.122 40.4434 20.8242 40.9097 22.6563 40.8873C22.7226 40.8873 22.7599 40.8537 22.7682 40.7864C24.2891 28.9549 36.4396 21.8756 46.9557 26.7669C53.2384 29.6896 57.1114 35.8454 57.2279 42.9328C57.229 43.0064 57.2652 43.0433 57.3367 43.0433H65.7601C65.814 43.0433 65.8399 43.0155 65.8378 42.96C65.4836 33.3101 60.1222 25.2192 52.0747 20.6511C52.0665 20.6465 52.0575 20.6436 52.0482 20.6428C52.0389 20.6419 52.0295 20.643 52.0206 20.646C52.0117 20.649 52.0036 20.6538 51.9966 20.6602C51.9896 20.6666 51.9839 20.6744 51.98 20.6831C51.6744 21.3479 51.2312 21.891 50.6501 22.3125C48.531 23.8491 47.6362 21.7731 48.4409 19.9485C48.4668 19.8887 48.4492 19.8508 48.3881 19.8348C47.2198 19.5355 45.1707 19.0793 44.7465 17.7797C44.4887 16.989 44.9936 16.2719 45.6336 15.835C45.6906 15.7955 45.6901 15.7571 45.6321 15.7197C45.0448 15.334 44.4405 14.9482 44.0086 14.3816C43.2971 13.4533 43.6482 12.3793 44.8087 12.2C45.4073 12.1072 46.0163 12.1691 46.6357 12.3857C46.66 12.3946 46.6865 12.395 46.7111 12.3869C46.7357 12.3788 46.757 12.3626 46.7718 12.3408C46.7866 12.319 46.7941 12.2928 46.7931 12.2662C46.7921 12.2397 46.7826 12.2142 46.7662 12.1936C46.2333 11.5134 46.3607 10.513 47.1173 10.0937C47.9345 9.64071 49.0313 10.2617 49.732 10.7323C49.7412 10.7381 49.752 10.7405 49.7628 10.7394C49.7735 10.7382 49.7836 10.7335 49.7915 10.7259C49.7994 10.7183 49.8047 10.7082 49.8066 10.6973C49.8085 10.6863 49.8068 10.675 49.8019 10.6651ZM50.1126 19.201C49.546 19.8337 49.2079 20.5791 49.0981 21.437C49.0774 21.5992 49.1442 21.7016 49.2985 21.7443C50.2633 22.0084 51.1581 20.0765 51.4347 19.313C51.4523 19.2629 51.4849 19.2495 51.5325 19.273C60.5557 23.7514 66.4235 32.6171 66.8445 42.9616C66.8466 43.0139 66.873 43.0401 66.9238 43.0401L72.8304 43.0497C72.8464 43.0497 72.8622 43.0463 72.8769 43.0397C72.8916 43.0331 72.9048 43.0234 72.9157 43.0113C72.9266 42.9991 72.935 42.9848 72.9404 42.9691C72.9458 42.9534 72.948 42.9367 72.947 42.92C72.2214 31.7528 66.0507 22.1445 56.3812 17.0722C56.3346 17.0477 56.301 17.0103 56.2803 16.9602C55.4957 15.0683 54.7515 13.751 52.9416 12.7458C52.7428 12.6354 52.5765 12.4465 52.4756 12.2737C51.9618 11.404 51.3767 10.5504 50.72 9.71273C50.7085 9.69866 50.6929 9.68876 50.6755 9.68447C50.6581 9.68018 50.6399 9.68171 50.6234 9.68886C50.6069 9.69601 50.5931 9.70839 50.5839 9.7242C50.5748 9.74001 50.5707 9.75842 50.5724 9.77675C50.6688 10.5883 51.5061 11.8559 51.907 12.6034C51.9411 12.6674 51.9308 12.7234 51.8759 12.7714L51.3383 13.2324C51.2793 13.2826 51.2218 13.281 51.1659 13.2276C50.226 12.3345 49.0546 11.2973 47.8024 10.942C47.7617 10.9302 47.7188 10.9293 47.6777 10.9394C47.6365 10.9494 47.5985 10.9701 47.5672 10.9995C47.5358 11.0289 47.5122 11.0661 47.4985 11.1075C47.4847 11.149 47.4813 11.1933 47.4886 11.2365C47.6921 12.4097 49.9495 13.6566 50.9267 14.1303C50.996 14.1634 51.0121 14.2146 50.9748 14.284L50.5833 14.9963C50.5522 15.0528 50.5087 15.0661 50.4528 15.0363C48.8262 14.188 46.6699 13.1508 44.8165 13.2324C44.7818 13.234 44.7482 13.2448 44.7188 13.2638C44.6895 13.2828 44.6654 13.3093 44.649 13.3408C44.6325 13.3722 44.6243 13.4075 44.625 13.4433C44.6258 13.479 44.6356 13.5139 44.6533 13.5445C45.4503 14.9242 48.3772 15.8478 49.791 16.3824C49.8614 16.408 49.8801 16.4555 49.8469 16.5248L49.5067 17.2339C49.4838 17.2821 49.4437 17.3194 49.3948 17.3379C49.3458 17.3564 49.2919 17.3547 49.2441 17.3331C48.4394 16.973 46.0578 15.9214 45.6492 17.3347C45.6347 17.3849 45.6399 17.4323 45.6647 17.4772C46.2131 18.5015 49.0158 18.9209 50.0722 19.0841C50.1571 19.0969 50.1706 19.1359 50.1126 19.201ZM49.3296 43.0273L49.9168 42.9984C51.6599 43.0486 53.4015 43.0625 55.1415 43.0401C55.3295 43.0385 55.5982 43.1057 55.8546 43.0257C55.9053 43.0096 55.9297 42.9744 55.9276 42.92C55.7049 37.4876 53.605 33.181 49.6279 30.0001C43.3142 24.9503 34.6685 25.6273 28.9126 31.1733C28.7779 31.3025 28.7334 31.4289 28.779 31.5527C29.9255 34.6146 29.3367 38.5312 26.8308 40.6296C26.1617 41.1898 25.256 41.6033 24.1136 41.87C24.0566 41.8828 24.0255 41.9197 24.0204 41.9805L23.9536 42.9152C23.9484 42.992 23.9831 43.0305 24.0577 43.0305L49.3296 43.0273ZM18.6497 32.7755C16.9206 30.9349 14.7487 33.5966 14.6135 35.2932C14.5125 36.5593 15.2846 37.7469 16.2385 38.4848C16.2735 38.5114 16.3143 38.5286 16.3574 38.535C16.4005 38.5415 16.4445 38.5368 16.4856 38.5216C17.5435 38.1295 18.9184 37.318 19.4265 36.268C19.9718 35.1444 19.4498 33.627 18.6497 32.7755ZM24.2627 40.596C27.6309 39.5812 28.8737 35.6822 27.8126 32.441C27.7919 32.377 27.7608 32.3716 27.7194 32.425C25.995 34.6391 24.8344 37.1782 24.2379 40.0422C24.1995 40.2268 24.1762 40.3858 24.168 40.5191C24.1638 40.5906 24.1954 40.6162 24.2627 40.596Z" fill="white"/>
<path d="M50.0722 19.0847C49.0158 18.9214 46.2131 18.5021 45.6647 17.4777C45.6399 17.4329 45.6347 17.3854 45.6492 17.3352C46.0578 15.9219 48.4394 16.9735 49.2441 17.3336C49.2919 17.3552 49.3458 17.3569 49.3948 17.3384C49.4437 17.3199 49.4838 17.2826 49.5067 17.2344L49.8469 16.5253C49.8801 16.456 49.8614 16.4085 49.791 16.3829C48.3772 15.8483 45.4503 14.9248 44.6533 13.5451C44.6356 13.5144 44.6258 13.4795 44.625 13.4438C44.6243 13.4081 44.6325 13.3728 44.649 13.3413C44.6654 13.3099 44.6895 13.2834 44.7188 13.2644C44.7482 13.2454 44.7818 13.2345 44.8165 13.2329C46.6699 13.1513 48.8262 14.1885 50.4528 15.0368C50.5087 15.0667 50.5522 15.0533 50.5833 14.9968L50.9748 14.2845C51.0121 14.2152 50.996 14.1639 50.9267 14.1309C49.9495 13.6571 47.6921 12.4102 47.4886 11.237C47.4813 11.1939 47.4847 11.1495 47.4985 11.1081C47.5122 11.0666 47.5359 11.0295 47.5672 11.0001C47.5985 10.9707 47.6365 10.95 47.6777 10.9399C47.7188 10.9298 47.7617 10.9307 47.8024 10.9425C49.0546 11.2978 50.226 12.335 51.1659 13.2281C51.2218 13.2815 51.2793 13.2831 51.3384 13.2329L51.8759 12.772C51.9308 12.724 51.9411 12.6679 51.907 12.6039C51.5061 11.8564 50.6688 10.5888 50.5724 9.77729C50.5707 9.75895 50.5748 9.74054 50.5839 9.72473C50.5931 9.70892 50.6069 9.69654 50.6234 9.68939C50.6399 9.68224 50.6581 9.68071 50.6755 9.685C50.6929 9.68929 50.7085 9.6992 50.72 9.71326C51.3767 10.5509 51.9618 11.4045 52.4756 12.2742C52.5765 12.4471 52.7428 12.6359 52.9416 12.7464C54.7515 13.7515 55.4957 15.0688 56.2803 16.9607C56.301 17.0109 56.3346 17.0482 56.3812 17.0727C66.0507 22.145 72.2214 31.7533 72.947 42.9206C72.948 42.9372 72.9458 42.9539 72.9404 42.9696C72.935 42.9853 72.9266 42.9997 72.9157 43.0118C72.9048 43.024 72.8916 43.0337 72.8769 43.0403C72.8622 43.0469 72.8464 43.0502 72.8304 43.0502L66.9238 43.0406C66.873 43.0406 66.8466 43.0145 66.8445 42.9622C66.4235 32.6176 60.5557 23.752 51.5325 19.2735C51.4849 19.2501 51.4523 19.2634 51.4347 19.3136C51.1581 20.077 50.2633 22.0089 49.2985 21.7448C49.1442 21.7022 49.0774 21.5997 49.0981 21.4375C49.2079 20.5796 49.546 19.8343 50.1126 19.2015C50.1706 19.1364 50.1571 19.0975 50.0722 19.0847Z" fill="#E9DFD3"/>
<path d="M49.9169 42.9984C49.8283 41.6299 49.5782 40.5175 48.5342 39.5908C48.4876 39.5502 48.4348 39.539 48.3758 39.5571L48.2717 39.5908C48.26 39.5945 48.2494 39.6011 48.2409 39.6101C48.2323 39.619 48.226 39.6299 48.2226 39.6419C48.2192 39.6538 48.2188 39.6664 48.2214 39.6784C48.224 39.6905 48.2295 39.7016 48.2375 39.7108C49.007 40.6391 49.3711 41.7446 49.3296 43.0272L24.0577 43.0304C23.9831 43.0304 23.9485 42.992 23.9536 42.9152L24.0204 41.9804C24.0256 41.9196 24.0567 41.8828 24.1136 41.87C25.256 41.6032 26.1618 41.1897 26.8308 40.6295C29.3368 38.5312 29.9256 34.6145 28.779 31.5526C28.7334 31.4288 28.778 31.3024 28.9126 31.1733C34.6686 25.6273 43.3142 24.9502 49.6279 30.0001C53.6051 33.181 55.705 37.4876 55.9277 42.92C55.9297 42.9744 55.9054 43.0096 55.8546 43.0256C55.5983 43.1056 55.3295 43.0384 55.1416 43.04C53.4016 43.0624 51.66 43.0485 49.9169 42.9984ZM43.8828 35.7237L43.4572 35.266C43.3857 35.1892 43.3898 35.1171 43.4696 35.0499C43.8466 34.7362 43.9388 34.3435 43.7461 33.8719C43.7328 33.8388 43.7096 33.8109 43.6799 33.7922C43.6503 33.7735 43.6156 33.7649 43.581 33.7678C43.5463 33.7706 43.5134 33.7847 43.4869 33.808C43.4605 33.8313 43.4419 33.8626 43.4338 33.8975C43.3541 34.2336 43.2044 34.5318 42.9849 34.7922C42.9507 34.8328 42.9108 34.8402 42.8652 34.8146C42.5908 34.6567 42.2951 34.5601 41.9782 34.5249C41.9516 34.5213 41.9246 34.5277 41.9022 34.5429C41.8798 34.5581 41.8634 34.581 41.8561 34.6076C41.8487 34.6342 41.8509 34.6626 41.8622 34.6877C41.8735 34.7128 41.8931 34.7328 41.9176 34.7442C43.6715 35.6165 44.8864 38.1886 42.4504 39.2466C42.3987 39.269 42.3759 39.3085 42.3821 39.3651L42.3914 39.4611C42.3986 39.5358 42.438 39.5646 42.5095 39.5475C43.7213 39.2648 44.3396 38.496 44.3644 37.2411C44.3706 36.9674 44.2588 36.6457 44.2153 36.3512C44.208 36.301 44.2246 36.261 44.265 36.2311C44.6886 35.9163 44.8036 35.5045 44.6099 34.9955C44.5989 34.9662 44.5797 34.941 44.5548 34.923C44.5299 34.9049 44.5003 34.8949 44.4698 34.8943C44.4394 34.8936 44.4094 34.9022 44.3837 34.9191C44.3581 34.936 44.3378 34.9603 44.3256 34.9891L44.0273 35.6981C43.9921 35.7814 43.9439 35.7899 43.8828 35.7237Z" fill="#E9DFD3"/>
<path d="M27.813 32.4411C28.8741 35.6822 27.6312 39.5813 24.2631 40.596C24.1958 40.6163 24.1642 40.5907 24.1683 40.5192C24.1766 40.3858 24.1999 40.2268 24.2382 40.0422C24.8348 37.1782 25.9953 34.6392 27.7198 32.425C27.7612 32.3717 27.7923 32.377 27.813 32.4411Z" fill="#615C51"/>
<path d="M44.0268 35.6985L44.3251 34.9894C44.3373 34.9607 44.3575 34.9363 44.3832 34.9194C44.4089 34.9026 44.4389 34.8939 44.4693 34.8946C44.4998 34.8953 44.5293 34.9053 44.5543 34.9233C44.5792 34.9413 44.5984 34.9665 44.6094 34.9958C44.803 35.5048 44.6881 35.9167 44.2645 36.2315C44.2241 36.2613 44.2076 36.3014 44.2148 36.3515C44.2583 36.646 44.3701 36.9677 44.3639 37.2414C44.3391 38.4963 43.7208 39.2651 42.5092 39.5479C42.4377 39.5649 42.3984 39.5361 42.3911 39.4614L42.3818 39.3654C42.3756 39.3088 42.3984 39.2694 42.4502 39.247C44.8859 38.189 43.6711 35.6168 41.9173 34.7445C41.8929 34.7331 41.8732 34.7131 41.862 34.688C41.8507 34.6629 41.8485 34.6345 41.8558 34.608C41.8632 34.5814 41.8795 34.5584 41.902 34.5432C41.9244 34.528 41.9513 34.5217 41.9779 34.5252C42.2948 34.5605 42.5905 34.657 42.8649 34.8149C42.9105 34.8406 42.9503 34.8331 42.9845 34.7925C43.2041 34.5322 43.3537 34.2339 43.4334 33.8978C43.4415 33.863 43.4601 33.8316 43.4865 33.8083C43.513 33.785 43.5459 33.771 43.5805 33.7681C43.6152 33.7653 43.6498 33.7738 43.6795 33.7925C43.7092 33.8112 43.7323 33.8391 43.7457 33.8722C43.9383 34.3438 43.8461 34.7365 43.4692 35.0502C43.3894 35.1175 43.3853 35.1895 43.4567 35.2663L43.8824 35.7241C43.9435 35.7902 43.9916 35.7817 44.0268 35.6985Z" fill="#201812"/>
<path d="M49.9157 42.9985L49.3285 43.0273C49.37 41.7447 49.006 40.6392 48.2365 39.7109C48.2286 39.7017 48.223 39.6906 48.2204 39.6785C48.2178 39.6665 48.2183 39.6539 48.2217 39.642C48.2251 39.63 48.2313 39.6191 48.2399 39.6102C48.2485 39.6012 48.259 39.5946 48.2707 39.5908L48.3748 39.5572C48.4338 39.5391 48.4866 39.5503 48.5332 39.5908C49.5771 40.5176 49.8272 41.63 49.9157 42.9985Z" fill="#201812"/>
<path d="M30.7473 53.3721C30.6965 52.941 30.6188 52.9357 30.5142 53.3561L29.3724 57.8969C29.3651 57.9259 29.3505 57.9524 29.3302 57.9738C29.3098 57.9952 29.2844 58.0107 29.2564 58.0188C29.2284 58.0269 29.1989 58.0273 29.1707 58.02C29.1425 58.0126 29.1167 57.9978 29.0958 57.977C29.0254 57.9055 28.9648 57.7993 28.9141 57.6585C28.4066 56.2371 27.999 54.7961 27.6914 53.3353C27.6868 53.3154 27.6759 53.2977 27.6605 53.2848C27.6451 53.2719 27.626 53.2647 27.6062 53.2641C27.5864 53.2636 27.5669 53.2698 27.5509 53.2818C27.5348 53.2938 27.523 53.3109 27.5174 53.3305L26.2932 57.7385C26.2787 57.791 26.2487 57.8375 26.2072 57.8716C26.1657 57.9058 26.1149 57.9258 26.0617 57.929C25.7531 57.9471 25.4537 57.9007 25.1637 57.7897C25.1171 57.7716 25.0938 57.7369 25.0938 57.6857C25.0918 57.1618 25.1296 56.6421 25.2072 56.1267C25.5107 54.111 25.9286 52.121 26.461 50.1565C26.6899 49.3093 27.0058 48.5277 27.4086 47.8117C27.421 47.7901 27.4392 47.7727 27.461 47.7616C27.4828 47.7504 27.5072 47.746 27.5314 47.7489C27.5556 47.7518 27.5784 47.7618 27.5972 47.7778C27.6159 47.7938 27.6297 47.815 27.637 47.8389C28.1901 49.71 28.6562 51.4642 29.1129 53.4313C29.1419 53.5551 29.1782 53.5578 29.2217 53.4393C29.506 52.6775 31.2398 48.1542 31.8099 48.023C31.8731 48.008 31.9083 48.0336 31.9156 48.0998C32.2667 51.158 32.5427 54.2204 32.7436 57.2871C32.7581 57.5048 32.7415 57.7198 32.6939 57.9322C32.6794 57.9994 32.6385 58.0309 32.5712 58.0266L31.3625 57.9498C31.3076 57.9466 31.2765 57.9167 31.2693 57.8601L30.7473 53.3721Z" fill="white"/>
<path d="M70.6234 52.7783C71.3069 51.613 71.7652 49.9949 72.1272 48.796C72.4038 47.8821 73.165 47.5988 74.0164 48.0085C74.0754 48.0373 74.0961 48.0838 74.0785 48.1478C73.3872 50.6015 72.3789 53.0632 71.467 55.2464C70.7694 56.9142 70.019 58.3723 67.9699 58.057C67.9264 58.0495 67.9062 58.0228 67.9093 57.977L67.9947 56.6997C67.9989 56.6453 68.0253 56.6063 68.074 56.5829C68.9036 56.1747 69.9926 56.2211 69.4955 54.803C68.8761 53.036 68.1568 51.3111 67.3376 49.6283C67.0973 49.1332 66.9103 48.612 66.7767 48.0646C66.7727 48.0486 66.7724 48.0319 66.7756 48.0158C66.7789 47.9997 66.7857 47.9845 66.7956 47.9714C66.8055 47.9583 66.8181 47.9476 66.8326 47.9402C66.8471 47.9328 66.8631 47.9288 66.8793 47.9285L68.0646 47.9237C68.1102 47.9237 68.1459 47.9434 68.1718 47.9829C68.4867 48.4546 68.669 48.7699 68.7187 48.9289C69.1506 50.2958 69.7472 51.5794 70.5084 52.7799C70.5478 52.8418 70.5861 52.8412 70.6234 52.7783Z" fill="white"/>
<path d="M42.2206 49.5997L39.5019 49.8206C39.4605 49.8238 39.4397 49.8473 39.4397 49.891L39.5159 57.6843C39.5163 57.7155 39.5106 57.7465 39.4993 57.7755C39.4879 57.8045 39.4711 57.831 39.4497 57.8533C39.4283 57.8756 39.4029 57.8934 39.3748 57.9056C39.3466 57.9178 39.3165 57.9241 39.2859 57.9244L38.1192 57.9308C38.0571 57.9318 38.0244 57.9003 38.0213 57.8363C37.8333 54.5967 38.0431 51.3204 38.1254 48.0952C38.1258 48.0752 38.13 48.0555 38.1378 48.0372C38.1456 48.0189 38.1568 48.0024 38.1708 47.9886C38.1848 47.9748 38.2013 47.9639 38.2194 47.9567C38.2375 47.9494 38.2567 47.9459 38.2761 47.9463L43.6748 48.0456C43.7193 48.0456 43.7411 48.0685 43.74 48.1144C43.6178 51.3433 43.5836 54.5733 43.6375 57.8043C43.6385 57.8662 43.609 57.8977 43.5489 57.8987L42.4599 57.9196C42.407 57.9205 42.3557 57.9005 42.3164 57.8637C42.2772 57.8268 42.2529 57.7758 42.2486 57.7211C42.0358 55.0545 42.2004 52.3143 42.2641 49.6413C42.2644 49.6355 42.2634 49.6297 42.2613 49.6243C42.2592 49.6189 42.2559 49.6141 42.2518 49.6101C42.2476 49.6062 42.2427 49.6032 42.2373 49.6014C42.2319 49.5996 42.2262 49.599 42.2206 49.5997Z" fill="white"/>
<path d="M22.1695 54.8911L19.9898 54.9839C19.9289 54.9863 19.8701 55.0082 19.8215 55.0466C19.7728 55.085 19.7367 55.138 19.7179 55.1984L18.921 57.7929C18.9061 57.8413 18.8751 57.8827 18.8333 57.9099C18.7916 57.9371 18.7417 57.9484 18.6926 57.9418L17.6051 57.7897C17.4932 57.7748 17.4544 57.7113 17.4886 57.5993C18.4813 54.3165 19.5579 51.0977 21.2296 48.0966C21.2938 47.9814 21.3595 47.9808 21.4269 48.095C21.4869 48.1974 21.548 48.3335 21.6102 48.5031C22.6987 51.4557 23.6852 54.4589 24.5697 57.5128C24.6194 57.6836 24.5578 57.7695 24.3849 57.7705L23.2026 57.7753C23.1311 57.7764 23.085 57.7417 23.0643 57.6713L22.2689 54.9631C22.2534 54.9129 22.2202 54.8889 22.1695 54.8911ZM20.3114 53.6938C20.3075 53.7032 20.3059 53.7135 20.3069 53.7237C20.3078 53.7338 20.3112 53.7436 20.3168 53.752C20.3224 53.7605 20.3299 53.7674 20.3388 53.772C20.3476 53.7767 20.3574 53.779 20.3673 53.7787L21.8106 53.7226C21.8193 53.7224 21.8277 53.7201 21.8355 53.7161C21.8432 53.7121 21.85 53.7064 21.8553 53.6993C21.8606 53.6923 21.8644 53.6842 21.8664 53.6755C21.8683 53.6668 21.8684 53.6577 21.8665 53.649L21.4051 51.2882C21.4025 51.2756 21.396 51.2642 21.3866 51.2557C21.3773 51.2471 21.3656 51.2418 21.3531 51.2406C21.3407 51.2393 21.3282 51.2422 21.3175 51.2487C21.3067 51.2553 21.2982 51.2651 21.2933 51.277L20.3114 53.6938Z" fill="white"/>
<path d="M12.0177 53.8747C12.5707 55.7073 14.7457 55.464 16.1937 55.5921C16.2526 55.5969 16.3078 55.6235 16.3494 55.6669C16.391 55.7104 16.4163 55.7679 16.4205 55.829L16.5355 57.4792C16.5417 57.5656 16.5028 57.6152 16.4189 57.628C16.1538 57.6664 15.6939 57.715 15.0394 57.7737C12.8752 57.9673 10.6179 57.0966 9.98561 54.8078C8.59827 49.7884 12.1311 47.4771 16.5168 48.1702C16.5507 48.1756 16.5815 48.1935 16.6035 48.2206C16.6255 48.2477 16.6372 48.2821 16.6364 48.3174L16.5929 49.7003C16.5898 49.7825 16.5484 49.8209 16.4687 49.8156C15.0316 49.7179 13.7515 49.4058 12.5599 50.2925C11.6837 50.944 11.7272 52.9127 12.0177 53.8747Z" fill="white"/>
<path d="M48.5392 49.7013C48.388 51.6582 48.1384 53.6008 47.7904 55.529C47.7531 55.7392 47.6231 56.0556 47.4004 56.4781C46.8256 57.5729 45.8686 58.0851 44.6366 57.9443C44.5807 57.9379 44.5527 57.9053 44.5527 57.8466L44.5543 56.5613C44.5543 56.4835 44.5921 56.4466 44.6677 56.4509C47.0493 56.5774 46.7371 53.0209 46.9452 51.3146C47.0726 50.2711 47.1368 49.2275 47.1379 48.1839C47.1383 48.1511 47.1511 48.1197 47.1735 48.0967C47.1958 48.0736 47.226 48.0607 47.2575 48.0607L51.1554 48.0479C51.23 48.0479 51.2678 48.0863 51.2688 48.1631L51.4475 57.725C51.4485 57.789 51.4174 57.8205 51.3543 57.8194L50.0555 57.8018C49.9996 57.8018 49.9706 57.773 49.9685 57.7154C49.9229 55.9931 49.9146 54.2747 49.9436 52.5599C49.9607 51.6155 49.8613 50.6632 49.8271 49.7125C49.825 49.641 49.7893 49.6052 49.7199 49.6052H48.6402C48.578 49.6052 48.5444 49.6372 48.5392 49.7013Z" fill="white"/>
<path d="M64.4279 52.9491C65.2001 53.2532 65.5512 53.8166 65.6832 54.6649C66.1384 57.562 63.5688 58.2566 61.3674 58.0502C61.3166 58.0459 61.2892 58.0176 61.2851 57.9653C61.0645 55.2908 61.066 51.4622 61.3643 48.285C61.3693 48.2284 61.3937 48.1755 61.433 48.1359C61.4723 48.0963 61.524 48.0725 61.5787 48.0689C62.5434 48.0001 63.7366 48.0641 64.4683 48.6739C65.7174 49.7175 65.2839 51.7407 64.4124 52.8947C64.4092 52.8991 64.407 52.9042 64.406 52.9096C64.405 52.9151 64.4053 52.9206 64.4068 52.9259C64.4083 52.9312 64.411 52.9361 64.4147 52.9401C64.4184 52.9441 64.4229 52.9472 64.4279 52.9491ZM62.5652 49.4486L62.4627 52.1984C62.4625 52.2033 62.4632 52.2081 62.4648 52.2126C62.4664 52.2172 62.4688 52.2214 62.472 52.2249C62.4752 52.2285 62.479 52.2314 62.4833 52.2334C62.4875 52.2355 62.4921 52.2366 62.4968 52.2368L62.5497 52.24C62.7388 52.2477 62.9274 52.2187 63.1049 52.1547C63.2823 52.0906 63.4449 51.9929 63.5836 51.867C63.7223 51.7411 63.8342 51.5895 63.9129 51.4209C63.9917 51.2523 64.0358 51.07 64.0426 50.8844C64.0496 50.6988 64.0192 50.5136 63.9532 50.3393C63.8872 50.1651 63.7869 50.0051 63.6581 49.8687C63.5293 49.7322 63.3744 49.6219 63.2023 49.5441C63.0303 49.4662 62.8444 49.4224 62.6553 49.415L62.6025 49.4134C62.5978 49.4132 62.5931 49.4139 62.5887 49.4156C62.5843 49.4173 62.5802 49.4198 62.5768 49.4231C62.5733 49.4263 62.5705 49.4303 62.5685 49.4347C62.5665 49.439 62.5654 49.4438 62.5652 49.4486ZM62.5015 54.0375L62.3741 56.6208C62.3716 56.6792 62.3916 56.7362 62.4297 56.7794C62.4678 56.8225 62.521 56.8484 62.5776 56.8513L62.8837 56.8673C63.2725 56.8875 63.6529 56.7519 63.9413 56.4905C64.2297 56.2291 64.4025 55.8632 64.4217 55.4732L64.4248 55.39C64.4437 55.0002 64.3076 54.6184 64.0463 54.3285C63.785 54.0385 63.4199 53.8642 63.0313 53.8438L62.7268 53.8278C62.6986 53.8263 62.6704 53.8305 62.6439 53.8403C62.6173 53.85 62.5928 53.865 62.5719 53.8845C62.551 53.904 62.534 53.9275 62.5219 53.9538C62.5098 53.98 62.5029 54.0085 62.5015 54.0375Z" fill="white"/>
<path d="M54.4646 52.3271C56.1828 52.5272 57.6385 53.153 57.4381 55.2882C57.2159 57.6427 54.7597 58.0188 52.9343 57.7227C52.8928 57.7158 52.855 57.6939 52.8277 57.6608C52.8004 57.6276 52.7853 57.5855 52.7852 57.5418L52.8582 48.2856C52.8592 48.2003 52.9012 48.1581 52.984 48.1592L54.3325 48.18C54.3644 48.1806 54.3959 48.1878 54.425 48.2012C54.4541 48.2146 54.4803 48.2339 54.5021 48.2579C54.5238 48.282 54.5407 48.3103 54.5516 48.3412C54.5625 48.3721 54.5672 48.4049 54.5655 48.4377L54.3838 52.2263C54.3807 52.286 54.4076 52.3196 54.4646 52.3271ZM54.2564 53.8893L54.1507 56.383C54.1501 56.3973 54.1522 56.4116 54.157 56.425C54.1617 56.4385 54.169 56.4508 54.1784 56.4614C54.1877 56.4719 54.199 56.4805 54.2116 56.4865C54.2242 56.4926 54.2378 56.496 54.2517 56.4966L54.8079 56.5222C54.981 56.5301 55.1537 56.5072 55.3161 56.4548C55.4786 56.4025 55.6276 56.3217 55.7547 56.217C55.8818 56.1124 55.9845 55.986 56.0569 55.845C56.1293 55.704 56.1699 55.5513 56.1766 55.3954L56.1906 55.0561C56.2038 54.7415 56.0776 54.4335 55.8399 54.2C55.6021 53.9665 55.2723 53.8265 54.9229 53.8109L54.3667 53.7852C54.3528 53.7846 54.3389 53.7868 54.3259 53.7917C54.3128 53.7965 54.3008 53.804 54.2906 53.8137C54.2803 53.8234 54.2721 53.835 54.2662 53.848C54.2603 53.861 54.257 53.875 54.2564 53.8893Z" fill="white"/>
<path d="M59.1037 48.168C59.1447 48.1678 59.1854 48.1759 59.2233 48.1918C59.2613 48.2078 59.2958 48.2313 59.3249 48.2611C59.3541 48.2908 59.3773 48.3261 59.3931 48.3651C59.409 48.404 59.4173 48.4458 59.4175 48.4881L59.4765 57.1632C59.4771 57.2568 59.4709 57.3495 59.4581 57.436C59.4453 57.5225 59.4263 57.6011 59.402 57.6674C59.3778 57.7337 59.3489 57.7863 59.3169 57.8223C59.2849 57.8583 59.2504 57.8769 59.2156 57.8771L58.3332 57.8835C58.2628 57.8839 58.1947 57.8093 58.1441 57.676C58.0934 57.5427 58.0642 57.3617 58.0629 57.1729L58.0039 48.4977C58.0037 48.4554 58.0116 48.4136 58.0271 48.3745C58.0426 48.3353 58.0654 48.2998 58.0943 48.2697C58.1231 48.2397 58.1574 48.2158 58.1952 48.1995C58.233 48.1831 58.2736 48.1746 58.3146 48.1744L59.1037 48.168Z" fill="white"/>
<path d="M46.9327 43.0201C46.9327 42.8211 46.8559 42.6301 46.7192 42.4894C46.5825 42.3486 46.397 42.2695 46.2037 42.2695C46.0103 42.2695 45.8249 42.3486 45.6881 42.4894C45.5514 42.6301 45.4746 42.8211 45.4746 43.0201L46.9327 43.0201Z" fill="#CAC0B4"/>
</svg>
