<svg width="1000" height="772" viewBox="0 0 1000 772" fill="none" xmlns="http://www.w3.org/2000/svg">
<path d="M622.529 36.6433C617.516 27.0553 616.391 17.0375 619.155 6.58988C619.412 5.64761 619.918 4.87892 620.673 4.2838C628.513 -1.91533 635.92 -1.38634 642.892 5.87078C655.311 18.7485 666.775 34.5439 677.282 53.257C677.635 53.9017 678.125 54.3976 678.752 54.7448C705.759 70.069 724.508 92.7 734.999 122.638C735.288 123.481 735.818 124.109 736.589 124.522C880.196 200.92 975.893 343.377 994.449 507.679C996.787 528.508 1000.84 544.873 999.848 562.305C999.783 563.215 999.318 563.669 998.45 563.669H2.24304C1.27908 563.669 0.789064 563.165 0.772998 562.157L0.556115 539.493C0.540049 538.666 0.933643 538.253 1.73695 538.253H199.807C200.819 538.253 201.325 537.732 201.325 536.691V525.135C201.325 524.11 200.827 523.598 199.831 523.598C163.538 523.681 130.763 512.96 101.507 491.437C100.864 490.974 100.174 490.85 99.4345 491.065C67.7202 500.686 35.315 505.877 2.21896 506.637C1.87546 506.644 1.54273 506.514 1.29097 506.273C1.03921 506.032 0.888088 505.701 0.869414 505.348L0.00184695 489.825C-0.00785839 489.628 0.020755 489.43 0.0860554 489.244C0.151356 489.058 0.252013 488.888 0.382145 488.742C0.512278 488.597 0.669277 488.479 0.843968 488.397C1.01866 488.315 1.20753 488.269 1.39956 488.263C28.6797 487.37 55.5502 483.494 82.0109 476.633C82.1749 476.593 82.3252 476.508 82.4463 476.387C82.5673 476.267 82.6546 476.115 82.699 475.947C82.7433 475.78 82.7431 475.603 82.6984 475.436C82.6537 475.269 82.566 475.117 82.4447 474.997C67.8889 460.392 57.3576 440.777 58.1528 419.824C59.7916 376.306 113.822 323.639 152.356 366.14C191.758 409.608 171.491 459.896 122.353 481.27C122.174 481.346 122.019 481.473 121.907 481.635C121.794 481.796 121.728 481.988 121.715 482.186C121.702 482.385 121.744 482.583 121.836 482.759C121.927 482.935 122.064 483.08 122.232 483.18C146.62 497.975 173.025 505.199 201.446 504.852C202.474 504.852 203.052 504.331 203.181 503.29C226.774 319.993 415.253 210.318 578.379 286.097C675.836 331.375 735.915 426.743 737.722 536.542C737.738 537.682 738.301 538.253 739.409 538.253H870.074C870.91 538.253 871.311 537.823 871.279 536.963C865.785 387.465 782.619 262.118 657.786 191.349C657.658 191.277 657.518 191.233 657.374 191.22C657.23 191.206 657.084 191.223 656.946 191.269C656.808 191.316 656.681 191.391 656.573 191.49C656.464 191.589 656.377 191.71 656.316 191.845C651.576 202.144 644.7 210.558 635.687 217.088C602.816 240.893 588.935 208.731 601.418 180.463C601.82 179.538 601.546 178.951 600.599 178.703C582.476 174.066 550.689 166.999 544.11 146.864C540.11 134.614 547.942 123.506 557.871 116.736C558.755 116.125 558.747 115.529 557.847 114.951C548.737 108.975 539.363 102.999 532.663 94.2209C521.626 79.8389 527.072 63.2004 545.074 60.4232C554.36 58.985 563.807 59.9438 573.415 63.2996C573.792 63.4372 574.203 63.4436 574.585 63.318C574.966 63.1923 575.297 62.9415 575.527 62.6039C575.756 62.2663 575.872 61.8605 575.856 61.4488C575.84 61.037 575.694 60.6419 575.439 60.324C567.173 49.7855 569.149 34.2876 580.885 27.7909C593.562 20.7735 610.576 30.3946 621.444 37.6848C621.588 37.7739 621.756 37.8124 621.923 37.7944C622.089 37.7765 622.246 37.7031 622.369 37.5853C622.491 37.4676 622.573 37.3119 622.602 37.1419C622.631 36.9719 622.605 36.7969 622.529 36.6433ZM627.349 168.883C618.56 178.686 613.315 190.233 611.612 203.524C611.29 206.037 612.327 207.624 614.721 208.285C629.686 212.376 643.567 182.447 647.857 170.619C648.13 169.842 648.636 169.635 649.375 169.999C789.342 239.38 880.365 376.728 886.895 536.988C886.927 537.798 887.337 538.203 888.124 538.203L979.749 538.352C979.997 538.353 980.242 538.3 980.47 538.198C980.697 538.096 980.902 537.946 981.072 537.757C981.241 537.569 981.372 537.346 981.455 537.103C981.538 536.86 981.573 536.601 981.556 536.343C970.302 363.338 874.581 214.484 724.588 135.904C723.865 135.524 723.343 134.945 723.022 134.168C710.852 104.859 699.308 84.451 671.233 68.8788C668.148 67.1679 665.57 64.2419 664.003 61.5638C656.034 48.091 646.957 34.8662 636.771 21.8893C636.592 21.6714 636.35 21.518 636.081 21.4515C635.811 21.385 635.528 21.4088 635.272 21.5195C635.017 21.6302 634.802 21.822 634.66 22.067C634.518 22.3119 634.455 22.5972 634.482 22.8812C635.976 35.4531 648.965 55.0919 655.183 66.6719C655.713 67.6638 655.552 68.5317 654.701 69.2756L646.363 76.417C645.447 77.1939 644.555 77.1691 643.688 76.3426C629.108 62.5061 610.937 46.4379 591.513 40.9331C590.882 40.7505 590.216 40.7366 589.578 40.8925C588.94 41.0484 588.35 41.3692 587.864 41.8248C587.378 42.2804 587.011 42.856 586.798 43.498C586.585 44.1399 586.532 44.8272 586.645 45.4957C589.802 63.6715 624.818 82.9881 639.976 90.3278C641.053 90.8403 641.302 91.6338 640.723 92.7083L634.651 103.743C634.169 104.619 633.494 104.826 632.626 104.363C607.394 91.2205 573.945 75.1523 545.195 76.417C544.658 76.4417 544.136 76.6094 543.68 76.9037C543.225 77.198 542.851 77.6088 542.596 78.096C542.341 78.5832 542.214 79.1302 542.226 79.6834C542.237 80.2366 542.389 80.7772 542.664 81.2523C555.027 102.627 600.43 116.935 622.36 125.217C623.452 125.613 623.742 126.349 623.228 127.423L617.95 138.408C617.595 139.156 616.973 139.733 616.214 140.02C615.455 140.306 614.618 140.28 613.877 139.946C601.394 134.367 564.45 118.075 558.112 139.971C557.887 140.747 557.967 141.483 558.353 142.177C566.86 158.047 610.335 164.544 626.722 167.073C628.039 167.272 628.248 167.875 627.349 168.883ZM615.203 538.005L624.312 537.558C651.351 538.335 678.366 538.55 705.357 538.203C708.273 538.178 712.442 539.22 716.419 537.98C717.206 537.732 717.583 537.186 717.551 536.343C714.097 452.184 681.523 385.465 619.83 336.186C521.891 257.953 387.78 268.441 298.493 354.361C296.404 356.362 295.713 358.321 296.42 360.238C314.205 407.674 305.072 468.351 266.2 500.86C255.821 509.538 241.772 515.944 224.051 520.077C223.167 520.275 222.685 520.846 222.605 521.788L221.569 536.269C221.488 537.459 222.026 538.054 223.183 538.054L615.203 538.005ZM139.294 379.183C112.472 350.667 78.7816 391.903 76.685 418.188C75.1186 437.802 87.0958 456.201 101.893 467.632C102.435 468.044 103.068 468.311 103.736 468.41C104.405 468.51 105.087 468.438 105.724 468.202C122.136 462.127 143.464 449.555 151.344 433.289C159.803 415.882 151.705 392.375 139.294 379.183ZM226.364 500.339C278.611 484.618 297.89 424.213 281.431 374C281.109 373.008 280.627 372.926 279.985 373.752C253.235 408.054 235.233 447.39 225.979 491.759C225.384 494.619 225.023 497.082 224.894 499.149C224.83 500.256 225.32 500.653 226.364 500.339Z" fill="white"/>
<path d="M626.723 167.081C610.336 164.552 566.861 158.055 558.354 142.185C557.969 141.491 557.888 140.755 558.113 139.978C564.451 118.083 601.395 134.374 613.878 139.954C614.619 140.288 615.456 140.314 616.215 140.027C616.974 139.741 617.596 139.164 617.951 138.416L623.229 127.431C623.743 126.357 623.454 125.621 622.361 125.224C600.431 116.942 555.028 102.635 542.666 81.2601C542.39 80.785 542.239 80.2444 542.227 79.6912C542.215 79.1379 542.343 78.591 542.598 78.1038C542.853 77.6166 543.226 77.2057 543.682 76.9114C544.137 76.6172 544.659 76.4495 545.196 76.4247C573.946 75.1601 607.396 91.2283 632.627 104.37C633.495 104.833 634.17 104.627 634.652 103.751L640.725 92.7161C641.303 91.6416 641.054 90.8481 639.978 90.3356C624.819 82.9958 589.803 63.6793 586.646 45.5034C586.534 44.8349 586.586 44.1477 586.799 43.5057C587.013 42.8638 587.379 42.2882 587.865 41.8325C588.352 41.3769 588.941 41.0562 589.579 40.9003C590.217 40.7443 590.883 40.7583 591.514 40.9409C610.938 46.4457 629.109 62.5139 643.689 76.3504C644.556 77.1769 645.448 77.2017 646.364 76.4247L654.702 69.2833C655.554 68.5394 655.714 67.6716 655.184 66.6797C648.967 55.0997 635.977 35.4608 634.483 22.889C634.457 22.605 634.519 22.3197 634.661 22.0748C634.803 21.8298 635.018 21.638 635.273 21.5273C635.529 21.4166 635.812 21.3927 636.082 21.4593C636.352 21.5258 636.593 21.6792 636.772 21.8971C646.958 34.874 656.036 48.0988 664.004 61.5716C665.571 64.2496 668.149 67.1756 671.234 68.8866C699.309 84.4588 710.853 104.866 723.023 134.176C723.344 134.953 723.866 135.531 724.589 135.912C874.582 214.492 970.303 363.346 981.558 536.351C981.574 536.609 981.54 536.868 981.456 537.111C981.373 537.354 981.242 537.577 981.073 537.765C980.903 537.954 980.698 538.104 980.471 538.206C980.243 538.308 979.998 538.361 979.75 538.36L888.126 538.211C887.338 538.211 886.929 537.806 886.897 536.996C880.366 376.736 789.344 239.388 649.376 170.007C648.637 169.643 648.131 169.85 647.858 170.627C643.568 182.455 629.687 212.384 614.722 208.293C612.328 207.632 611.292 206.045 611.613 203.532C613.316 190.241 618.562 178.694 627.35 168.891C628.249 167.883 628.041 167.279 626.723 167.081Z" fill="#E9DFD3"/>
<path d="M624.313 537.558C622.94 516.357 619.06 499.123 602.865 484.766C602.142 484.138 601.323 483.964 600.407 484.245L598.792 484.766C598.612 484.824 598.448 484.927 598.315 485.065C598.182 485.204 598.084 485.373 598.032 485.558C597.979 485.743 597.972 485.938 598.013 486.124C598.053 486.311 598.139 486.483 598.262 486.626C610.199 501.008 615.846 518.134 615.204 538.004L223.185 538.054C222.028 538.054 221.49 537.459 221.57 536.269L222.606 521.787C222.686 520.845 223.168 520.275 224.052 520.076C241.773 515.944 255.823 509.538 266.201 500.859C305.073 468.351 314.207 407.674 296.422 360.238C295.715 358.32 296.405 356.361 298.494 354.361C387.781 268.441 521.892 257.952 619.831 336.185C681.524 385.464 714.098 452.184 717.553 536.343C717.585 537.186 717.207 537.732 716.42 537.98C712.444 539.219 708.274 538.178 705.358 538.203C678.367 538.55 651.352 538.335 624.313 537.558ZM530.713 424.858L524.109 417.766C523.001 416.576 523.065 415.46 524.302 414.418C530.15 409.558 531.58 403.475 528.592 396.168C528.385 395.655 528.026 395.223 527.565 394.933C527.105 394.644 526.568 394.511 526.03 394.556C525.492 394.6 524.982 394.818 524.572 395.179C524.162 395.54 523.873 396.025 523.748 396.565C522.511 401.772 520.189 406.393 516.783 410.426C516.253 411.054 515.635 411.17 514.928 410.773C510.67 408.327 506.083 406.831 501.167 406.285C500.755 406.23 500.336 406.328 499.989 406.564C499.641 406.799 499.387 407.155 499.273 407.567C499.159 407.978 499.193 408.419 499.368 408.807C499.543 409.195 499.848 409.506 500.227 409.682C527.435 423.196 546.281 463.044 508.493 479.435C507.69 479.782 507.336 480.394 507.433 481.27L507.577 482.758C507.69 483.915 508.3 484.361 509.409 484.097C528.206 479.716 537.798 467.805 538.183 448.365C538.28 444.125 536.545 439.141 535.87 434.578C535.757 433.801 536.014 433.181 536.641 432.718C543.212 427.842 544.995 421.461 541.991 413.575C541.82 413.122 541.523 412.731 541.136 412.452C540.749 412.172 540.29 412.018 539.818 412.007C539.346 411.997 538.881 412.13 538.483 412.392C538.084 412.654 537.77 413.031 537.581 413.476L532.954 424.461C532.408 425.75 531.66 425.883 530.713 424.858Z" fill="#E9DFD3"/>
<path d="M281.436 374C297.895 424.214 278.616 484.618 226.369 500.339C225.325 500.653 224.835 500.256 224.899 499.149C225.028 497.082 225.389 494.619 225.984 491.759C235.238 447.39 253.24 408.054 279.99 373.753C280.632 372.926 281.114 373.009 281.436 374Z" fill="#615C51"/>
<path d="M532.945 424.465L537.572 413.48C537.761 413.035 538.075 412.657 538.473 412.396C538.872 412.134 539.336 412 539.809 412.011C540.281 412.022 540.74 412.176 541.126 412.455C541.513 412.735 541.811 413.126 541.981 413.579C544.985 421.464 543.202 427.845 536.632 432.722C536.005 433.185 535.748 433.805 535.861 434.582C536.536 439.144 538.27 444.128 538.174 448.369C537.788 467.809 528.198 479.72 509.403 484.1C508.295 484.365 507.684 483.919 507.572 482.761L507.427 481.274C507.331 480.397 507.684 479.786 508.487 479.439C546.27 463.048 527.427 423.2 500.222 409.686C499.843 409.51 499.538 409.199 499.363 408.811C499.188 408.422 499.155 407.982 499.268 407.57C499.382 407.159 499.636 406.803 499.984 406.567C500.331 406.332 500.75 406.233 501.162 406.289C506.078 406.834 510.664 408.33 514.921 410.777C515.628 411.174 516.246 411.058 516.777 410.43C520.182 406.396 522.503 401.776 523.74 396.569C523.866 396.029 524.154 395.543 524.564 395.182C524.974 394.822 525.484 394.603 526.022 394.559C526.56 394.515 527.097 394.648 527.557 394.937C528.018 395.227 528.377 395.659 528.584 396.172C531.572 403.479 530.142 409.562 524.295 414.422C523.058 415.464 522.993 416.579 524.102 417.77L530.704 424.861C531.652 425.886 532.399 425.754 532.945 424.465Z" fill="#201812"/>
<path d="M624.31 537.56L615.201 538.006C615.844 518.136 610.197 501.009 598.262 486.627C598.138 486.485 598.053 486.313 598.012 486.126C597.972 485.94 597.979 485.745 598.031 485.56C598.084 485.375 598.181 485.205 598.314 485.067C598.447 484.929 598.611 484.826 598.792 484.768L600.406 484.247C601.322 483.966 602.141 484.14 602.864 484.768C619.057 499.125 622.936 516.359 624.31 537.56Z" fill="#201812"/>
<path d="M326.953 698.269C326.165 691.591 324.96 691.508 323.338 698.021L305.625 768.369C305.512 768.818 305.286 769.229 304.97 769.56C304.655 769.891 304.26 770.132 303.826 770.257C303.392 770.382 302.934 770.389 302.497 770.275C302.06 770.161 301.659 769.932 301.335 769.609C300.243 768.501 299.303 766.856 298.516 764.674C290.643 742.655 284.321 720.33 279.55 697.699C279.478 697.391 279.31 697.116 279.071 696.917C278.832 696.718 278.535 696.605 278.228 696.596C277.92 696.588 277.619 696.684 277.37 696.87C277.121 697.056 276.938 697.321 276.851 697.624L257.861 765.914C257.636 766.727 257.17 767.448 256.527 767.977C255.883 768.505 255.094 768.816 254.27 768.865C249.482 769.146 244.839 768.427 240.341 766.708C239.618 766.427 239.256 765.889 239.256 765.096C239.224 756.979 239.81 748.929 241.015 740.944C245.723 709.717 252.205 678.887 260.463 648.453C264.014 635.327 268.914 623.218 275.164 612.126C275.356 611.792 275.638 611.522 275.976 611.35C276.314 611.177 276.693 611.109 277.068 611.153C277.443 611.198 277.797 611.353 278.088 611.601C278.379 611.848 278.593 612.177 278.706 612.547C287.286 641.535 294.515 668.712 301.6 699.187C302.05 701.104 302.613 701.146 303.287 699.311C307.697 687.508 334.592 617.432 343.436 615.399C344.416 615.168 344.963 615.564 345.075 616.589C350.521 663.967 354.803 711.411 357.92 758.922C358.145 762.294 357.888 765.625 357.149 768.915C356.924 769.956 356.289 770.444 355.245 770.378L336.496 769.187C335.644 769.138 335.162 768.675 335.05 767.799L326.953 698.269Z" fill="white"/>
<path d="M945.498 689.069C956.101 671.017 963.211 645.948 968.826 627.375C973.115 613.217 984.924 608.828 998.13 615.175C999.046 615.622 999.367 616.341 999.094 617.333C988.37 655.346 972.73 693.483 958.584 727.305C947.763 753.143 936.123 775.733 904.337 770.848C903.662 770.733 903.348 770.319 903.397 769.608L904.722 749.821C904.786 748.978 905.196 748.374 905.951 748.011C918.82 741.688 935.714 742.407 928.002 720.437C918.394 693.061 907.236 666.339 894.528 640.27C890.801 632.599 887.901 624.524 885.829 616.043C885.767 615.796 885.761 615.538 885.811 615.288C885.862 615.038 885.968 614.803 886.121 614.6C886.274 614.397 886.471 614.232 886.695 614.117C886.92 614.002 887.168 613.94 887.419 613.936L905.807 613.861C906.514 613.861 907.068 614.167 907.469 614.779C912.354 622.085 915.181 626.97 915.952 629.433C922.652 650.61 931.906 670.497 943.714 689.094C944.325 690.053 944.919 690.045 945.498 689.069Z" fill="white"/>
<path d="M504.929 639.826L462.755 643.248C462.113 643.297 461.791 643.661 461.791 644.339L462.972 765.073C462.978 765.557 462.891 766.038 462.715 766.487C462.539 766.936 462.277 767.346 461.946 767.691C461.614 768.037 461.219 768.312 460.783 768.501C460.347 768.69 459.879 768.789 459.405 768.793L441.307 768.892C440.343 768.908 439.837 768.421 439.789 767.429C436.873 717.241 440.126 666.482 441.403 616.517C441.41 616.208 441.475 615.903 441.596 615.619C441.717 615.336 441.891 615.08 442.108 614.866C442.325 614.652 442.581 614.484 442.861 614.371C443.141 614.259 443.44 614.204 443.741 614.211L527.485 615.748C528.176 615.748 528.513 616.104 528.497 616.815C526.602 666.838 526.071 716.877 526.907 766.933C526.923 767.892 526.465 768.379 525.533 768.396L508.64 768.718C507.819 768.733 507.023 768.424 506.415 767.853C505.806 767.281 505.43 766.492 505.362 765.644C502.061 724.333 504.615 681.881 505.603 640.471C505.607 640.38 505.592 640.29 505.559 640.207C505.526 640.123 505.476 640.048 505.411 639.987C505.347 639.926 505.271 639.879 505.187 639.851C505.104 639.824 505.016 639.815 504.929 639.826Z" fill="white"/>
<path d="M193.909 721.801L160.098 723.239C159.153 723.277 158.241 723.616 157.486 724.211C156.732 724.805 156.171 725.626 155.88 726.562L143.518 766.757C143.287 767.506 142.806 768.148 142.158 768.569C141.51 768.991 140.738 769.166 139.975 769.063L123.106 766.708C121.37 766.476 120.768 765.493 121.298 763.757C136.697 712.899 153.398 663.033 179.329 616.54C180.325 614.754 181.345 614.746 182.389 616.515C183.321 618.102 184.269 620.21 185.233 622.838C202.118 668.579 217.421 715.106 231.142 762.418C231.913 765.063 230.957 766.394 228.274 766.41L209.935 766.485C208.826 766.501 208.111 765.964 207.79 764.873L195.451 722.917C195.21 722.14 194.696 721.768 193.909 721.801ZM165.086 703.253C165.025 703.399 165.001 703.558 165.016 703.715C165.03 703.873 165.083 704.024 165.17 704.155C165.256 704.286 165.373 704.393 165.51 704.465C165.647 704.537 165.8 704.572 165.954 704.568L188.342 703.7C188.476 703.696 188.608 703.661 188.728 703.599C188.848 703.536 188.953 703.447 189.035 703.339C189.118 703.23 189.177 703.103 189.207 702.969C189.237 702.834 189.238 702.694 189.209 702.559L182.052 665.984C182.011 665.789 181.91 665.613 181.766 665.481C181.621 665.348 181.439 665.266 181.246 665.247C181.053 665.228 180.859 665.272 180.692 665.373C180.525 665.474 180.394 665.628 180.317 665.811L165.086 703.253Z" fill="white"/>
<path d="M36.4184 706.055C44.9976 734.447 78.7363 730.678 101.197 732.662C102.11 732.737 102.967 733.148 103.613 733.821C104.258 734.495 104.649 735.385 104.715 736.331L106.498 761.897C106.595 763.236 105.992 764.004 104.691 764.203C100.578 764.798 93.4448 765.55 83.291 766.459C49.7211 769.46 14.7051 755.97 4.89681 720.511C-16.6236 642.749 38.1776 606.943 106.209 617.68C106.735 617.764 107.213 618.042 107.554 618.461C107.896 618.881 108.077 619.414 108.065 619.961L107.39 641.385C107.342 642.658 106.699 643.253 105.462 643.171C83.1705 641.658 63.3129 636.823 44.8289 650.56C31.2371 660.652 31.9119 691.152 36.4184 706.055Z" fill="white"/>
<path d="M602.942 641.401C600.597 671.719 596.725 701.814 591.327 731.685C590.748 734.942 588.732 739.843 585.278 746.39C576.361 763.35 561.516 771.285 542.406 769.103C541.538 769.004 541.104 768.5 541.104 767.591L541.128 747.679C541.128 746.472 541.715 745.902 542.888 745.968C579.831 747.927 574.988 692.829 578.217 666.396C580.193 650.229 581.189 634.061 581.205 617.894C581.211 617.385 581.41 616.9 581.757 616.542C582.104 616.185 582.573 615.985 583.061 615.985L643.525 615.786C644.682 615.786 645.268 616.381 645.284 617.571L648.056 765.706C648.072 766.698 647.59 767.186 646.61 767.169L626.463 766.896C625.596 766.896 625.146 766.45 625.114 765.557C624.407 738.876 624.278 712.253 624.728 685.688C624.993 671.058 623.451 656.304 622.921 641.575C622.888 640.467 622.334 639.913 621.258 639.913H604.509C603.545 639.913 603.023 640.409 602.942 641.401Z" fill="white"/>
<path d="M849.393 691.717C861.37 696.428 866.816 705.157 868.865 718.299C875.926 763.181 836.066 773.943 801.918 770.744C801.131 770.678 800.705 770.24 800.64 769.43C797.218 727.994 797.243 668.681 801.87 619.46C801.948 618.583 802.326 617.764 802.936 617.15C803.545 616.536 804.347 616.168 805.195 616.112C820.161 615.046 838.669 616.038 850.019 625.485C869.395 641.653 862.671 672.996 849.152 690.874C849.102 690.942 849.067 691.021 849.052 691.105C849.037 691.19 849.042 691.276 849.065 691.358C849.089 691.44 849.13 691.516 849.187 691.578C849.244 691.64 849.315 691.688 849.393 691.717ZM820.498 637.487L818.908 680.088C818.904 680.162 818.916 680.237 818.94 680.308C818.965 680.378 819.003 680.443 819.053 680.498C819.102 680.554 819.161 680.598 819.227 680.63C819.293 680.662 819.365 680.679 819.438 680.683L820.257 680.732C823.191 680.851 826.117 680.401 828.869 679.409C831.621 678.418 834.145 676.903 836.296 674.953C838.447 673.002 840.183 670.654 841.404 668.041C842.626 665.429 843.31 662.605 843.416 659.73C843.524 656.855 843.052 653.986 842.029 651.286C841.005 648.586 839.45 646.108 837.451 643.994C835.453 641.88 833.05 640.172 830.381 638.966C827.712 637.76 824.829 637.08 821.896 636.966L821.077 636.941C821.004 636.938 820.931 636.95 820.862 636.975C820.794 637.001 820.731 637.04 820.677 637.091C820.624 637.142 820.58 637.203 820.549 637.271C820.519 637.339 820.501 637.412 820.498 637.487ZM819.51 708.579L817.534 748.6C817.495 749.504 817.805 750.387 818.396 751.056C818.988 751.725 819.813 752.126 820.691 752.171L825.438 752.419C831.469 752.731 837.37 750.631 841.844 746.581C846.318 742.531 848.999 736.862 849.296 730.821L849.345 729.532C849.638 723.493 847.526 717.578 843.472 713.086C839.419 708.595 833.756 705.894 827.728 705.578L823.004 705.33C822.568 705.307 822.13 705.373 821.718 705.523C821.306 705.674 820.927 705.907 820.602 706.209C820.278 706.51 820.014 706.875 819.827 707.282C819.639 707.688 819.532 708.129 819.51 708.579Z" fill="white"/>
<path d="M694.856 682.081C721.509 685.18 744.09 694.876 740.981 727.954C737.535 764.43 699.435 770.257 671.118 765.67C670.475 765.564 669.889 765.224 669.465 764.711C669.041 764.197 668.807 763.544 668.805 762.868L669.937 619.469C669.953 618.147 670.604 617.494 671.889 617.51L692.807 617.833C693.302 617.842 693.79 617.954 694.242 618.161C694.694 618.368 695.101 618.667 695.438 619.04C695.775 619.412 696.036 619.851 696.205 620.329C696.374 620.808 696.448 621.317 696.422 621.825L693.603 680.518C693.554 681.444 693.972 681.965 694.856 682.081ZM691.626 706.282L689.988 744.915C689.978 745.137 690.011 745.358 690.084 745.566C690.158 745.775 690.271 745.966 690.416 746.13C690.562 746.293 690.737 746.426 690.932 746.519C691.128 746.613 691.339 746.666 691.554 746.676L700.182 747.072C702.866 747.194 705.545 746.839 708.065 746.028C710.585 745.217 712.897 743.965 714.868 742.344C716.84 740.723 718.433 738.764 719.556 736.58C720.678 734.396 721.31 732.03 721.413 729.616L721.63 724.359C721.834 719.484 719.877 714.714 716.19 711.096C712.502 707.478 707.385 705.31 701.965 705.067L693.338 704.67C693.122 704.66 692.907 704.694 692.705 704.77C692.502 704.845 692.316 704.961 692.157 705.111C691.998 705.261 691.869 705.441 691.778 705.642C691.687 705.843 691.636 706.061 691.626 706.282Z" fill="white"/>
<path d="M766.836 617.646C767.472 617.643 768.102 617.768 768.691 618.016C769.28 618.263 769.815 618.628 770.267 619.088C770.719 619.549 771.079 620.096 771.325 620.7C771.571 621.303 771.7 621.951 771.703 622.605L772.619 757.003C772.628 758.452 772.531 759.888 772.333 761.228C772.135 762.568 771.839 763.786 771.463 764.813C771.087 765.84 770.638 766.656 770.142 767.213C769.646 767.771 769.112 768.059 768.571 768.062L754.884 768.161C753.791 768.167 752.736 767.011 751.949 764.946C751.163 762.881 750.71 760.078 750.691 757.152L749.775 622.754C749.772 622.1 749.894 621.451 750.135 620.845C750.375 620.239 750.73 619.688 751.177 619.223C751.625 618.758 752.157 618.388 752.743 618.134C753.329 617.881 753.959 617.749 754.595 617.745L766.836 617.646Z" fill="white"/>
<path d="M578.021 537.895C578.021 534.811 576.83 531.853 574.709 529.672C572.588 527.492 569.711 526.266 566.712 526.266C563.713 526.266 560.836 527.492 558.715 529.672C556.594 531.853 555.403 534.811 555.403 537.895L578.021 537.895Z" fill="#CAC0B4"/>
</svg>
