<svg width="15" height="27" viewBox="0 0 15 27" fill="none" xmlns="http://www.w3.org/2000/svg">
<path d="M10.2198 19.6175C11.6932 19.2621 12.9937 18.6839 14.1622 17.91L14.1114 17.9415C14.6498 17.5714 15 16.9438 15 16.2317C15 15.1035 14.1211 14.189 13.0369 14.189C12.6607 14.189 12.3094 14.2992 12.011 14.4893L12.0197 14.4837C10.7398 15.3285 9.18204 15.829 7.51189 15.829C5.84174 15.829 4.28293 15.3273 2.96952 14.4623L3.00411 14.4837C2.70791 14.2868 2.34686 14.1699 1.95878 14.1699C1.26477 14.1699 0.655088 14.5456 0.305924 15.1114L0.3016 15.1192C0.3016 15.1192 0.3016 15.1192 0.3016 15.1249C0.112424 15.4331 0 15.8088 0 16.2126C0 16.9359 0.362136 17.5703 0.906962 17.9325L0.914529 17.937C2.03229 18.6805 3.33273 19.2576 4.72182 19.5939L4.80614 19.6108L1.05614 23.5084C0.697247 23.8763 0.47456 24.387 0.47456 24.9528C0.47456 25.5028 0.685356 26.0011 1.02587 26.3656L1.0583 26.3993C1.41071 26.7672 1.89824 26.9944 2.43658 26.9944C2.97492 26.9944 3.46245 26.7672 3.81486 26.3993L7.51297 22.5703L11.1884 26.4016C11.543 26.7705 12.0337 27 12.5753 27C13.6585 27 14.5363 26.0866 14.5363 24.9595C14.5363 24.396 14.3168 23.8864 13.9622 23.5163L10.2198 19.6175ZM7.51189 13.9348C11.2068 13.9314 14.2011 10.8133 14.2011 6.96738C14.2011 3.11924 11.2035 0 7.50541 0C3.80729 0 0.809671 3.11924 0.809671 6.96738V6.97413C0.817238 10.82 3.81486 13.9348 7.51189 13.9348ZM7.51189 4.08324C9.04367 4.08324 10.2847 5.37458 10.2847 6.9685C10.2847 8.56243 9.04367 9.85377 7.51189 9.85377C5.98227 9.85377 4.74128 8.56468 4.73912 6.973C4.73912 6.97188 4.73912 6.97188 4.73912 6.97075C4.73912 5.37683 5.98011 4.08436 7.51189 4.08324Z" fill="white"/>
</svg>
