<svg width="103" height="103" viewBox="0 0 103 103" fill="none" xmlns="http://www.w3.org/2000/svg">
<path d="M100.128 42.1518C99.551 39.7329 97.4754 37.7197 94.7131 36.8926C92.4971 36.2215 90.2186 36.362 88.221 36.4868L71.0075 37.5168C68.4793 37.6729 65.8731 37.6885 64.453 36.2996C63.4698 35.332 63.0953 33.6933 62.7207 31.805L58.9284 12.4067C58.5227 10.2843 58.0077 7.66244 56.4471 5.5088C54.8553 3.29274 51.6716 1.43562 48.5036 2.59047C44.9298 3.88577 43.931 8.02138 43.4472 10.0033L40.5133 22.0356C40.2324 23.2061 39.9671 24.3921 39.7174 25.5938C39.2336 27.8879 38.7186 30.26 37.9851 32.4137C37.673 33.3188 37.6418 33.4124 35.2228 32.9287L13.0622 28.8711C11.0491 28.5121 7.3192 27.8255 4.71299 30.1508C2.12238 32.4605 2.30966 36.4556 3.79223 39.0462C5.21238 41.4964 7.58451 43.1038 9.48844 44.3835L24.6419 54.5743C25.75 55.3234 26.858 56.1349 27.0765 57.0088C27.3106 57.9608 26.5927 59.2405 25.8436 60.4734L13.6709 80.2931C10.1439 86.0361 11.8918 89.0012 13.2495 90.2653C15.8401 92.6843 19.7416 91.4202 21.0213 90.9988C30.9044 87.7829 40.0535 82.6435 47.9418 75.8765C52.015 83.6327 57.5083 90.7959 63.938 96.7106C65.3113 97.9747 66.9343 99.3793 68.9943 100.175C70.0243 100.565 71.07 100.768 72.0687 100.768C73.5201 100.768 74.909 100.362 76.0327 99.5665C77.9054 98.24 78.9978 95.8523 78.9666 93.1837C78.951 91.0456 78.2643 89.048 77.6557 87.3002L70.8671 67.6365C70.1804 65.639 69.6498 63.8755 70.1492 62.4553C70.8203 60.5202 73.364 59.4277 75.6893 58.5538L91.4983 52.5923C93.4334 51.8588 95.6183 51.0317 97.4286 49.4555C99.6915 47.4579 100.721 44.6644 100.128 42.1518ZM94.838 46.4747C93.5739 47.5827 91.826 48.2382 90.125 48.878L74.316 54.8396C72.0375 55.6979 67.7771 57.3053 66.435 61.1444C65.4518 63.9691 66.4818 66.9343 67.1528 68.9162L73.9415 88.5799C74.4721 90.1249 75.0183 91.7011 75.0339 93.2149C75.0495 94.2761 74.7218 95.665 73.7542 96.3517C72.9583 96.9135 71.6318 96.9759 70.3989 96.5077C68.9943 95.9615 67.7459 94.8847 66.591 93.8235C59.8804 87.6591 54.2466 80.059 50.3139 71.8502C50.0486 71.2884 49.518 70.8826 48.9094 70.7733C48.7845 70.7421 48.6597 70.7421 48.5348 70.7421C48.051 70.7421 47.5672 70.9294 47.2083 71.2571C39.3229 78.488 29.9778 83.9429 19.804 87.2533C17.8221 87.8932 16.5268 87.94 15.9337 87.3782C14.9974 86.5043 15.8869 84.2102 17.0262 82.3374L29.1833 62.5333C30.0572 61.0976 31.5398 58.7099 30.8844 56.0724C30.2913 53.6379 28.1221 52.1709 26.8268 51.297L11.6733 41.1062C10.0191 39.9982 8.14632 38.7341 7.17875 37.0643C6.47647 35.8314 6.32041 33.9587 7.3036 33.0847C8.3336 32.164 10.3312 32.3824 12.3287 32.7414L33.6934 36.6273L34.4581 36.7677C36.6274 37.2047 40.2636 37.9226 41.715 33.6465C42.5265 31.2744 43.0571 28.793 43.5721 26.3897C43.8218 25.2349 44.0715 24.08 44.3368 22.9408L47.2707 10.9085C47.7545 8.89532 48.4412 6.7729 49.8457 6.2579C50.985 5.85214 52.4675 6.71047 53.2478 7.77168C54.2934 9.22305 54.6836 11.205 55.0581 13.1246L58.8504 32.5073C59.2406 34.4737 59.7556 37.1579 61.6751 39.0462C64.2501 41.59 67.9643 41.59 71.226 41.4027L88.4395 40.3727C90.203 40.2635 92.0133 40.1543 93.5739 40.6224C94.9784 41.0438 96.0396 41.9802 96.2894 43.0102C96.5859 44.2899 95.7743 45.6632 94.838 46.4747Z" fill="#278DB6"/>
<path d="M29.1838 40.2951C27.514 40.2951 26.1562 41.6528 26.1562 43.3071C26.1562 44.9769 27.514 46.3347 29.1838 46.3347C30.8537 46.3347 32.2114 44.9769 32.2114 43.3071C32.2114 41.6528 30.8537 40.2951 29.1838 40.2951ZM49.5029 32.3984C47.3181 32.3984 45.539 34.1775 45.539 36.3468C45.539 38.5316 47.3181 40.3107 49.5029 40.3107C51.6878 40.3107 53.4669 38.5316 53.4669 36.3468C53.4669 34.1775 51.6878 32.3984 49.5029 32.3984ZM62.6588 53.295C62.6588 52.0153 61.6132 50.9696 60.3179 50.9696C60.0043 50.9582 59.6917 51.01 59.3986 51.1221C59.1055 51.2342 58.8381 51.4042 58.6122 51.622C58.3863 51.8398 58.2066 52.1009 58.0839 52.3896C57.9612 52.6784 57.8979 52.989 57.8979 53.3028C57.8979 53.6165 57.9612 53.9271 58.0839 54.2159C58.2066 54.5047 58.3863 54.7657 58.6122 54.9835C58.8381 55.2013 59.1055 55.3713 59.3986 55.4834C59.6917 55.5955 60.0043 55.6473 60.3179 55.6359C61.6132 55.6359 62.6588 54.5903 62.6588 53.295ZM47.8799 49.175C47.5663 49.1635 47.2537 49.2153 46.9606 49.3274C46.6675 49.4395 46.4 49.6095 46.1741 49.8273C45.9482 50.0451 45.7686 50.3062 45.6458 50.5949C45.5231 50.8837 45.4599 51.1943 45.4599 51.5081C45.4599 51.8218 45.5231 52.1324 45.6458 52.4212C45.7686 52.71 45.9482 52.971 46.1741 53.1888C46.4 53.4066 46.6675 53.5766 46.9606 53.6887C47.2537 53.8008 47.5663 53.8526 47.8799 53.8412C49.1752 53.8412 50.2208 52.7956 50.2208 51.5003C50.2052 50.2206 49.1596 49.175 47.8799 49.175ZM79.3105 43.3227C77.5782 43.3227 76.1737 44.7272 76.1737 46.4439C76.1737 47.2758 76.5042 48.0737 77.0924 48.662C77.6807 49.2502 78.4785 49.5807 79.3105 49.5807C80.1424 49.5807 80.9403 49.2502 81.5286 48.662C82.1168 48.0737 82.4473 47.2758 82.4473 46.4439C82.4629 44.7272 81.0584 43.3227 79.3105 43.3227ZM55.6205 63.6886C54.861 63.6886 54.1326 63.9903 53.5955 64.5273C53.0585 65.0644 52.7568 65.7928 52.7568 66.5523C52.7568 67.3118 53.0585 68.0402 53.5955 68.5772C54.1326 69.1143 54.861 69.416 55.6205 69.416C57.2123 69.416 58.492 68.1363 58.492 66.5445C58.492 64.9839 57.1967 63.6886 55.6205 63.6886ZM63.7356 76.5948C62.4403 76.5948 61.4103 77.6404 61.4103 78.9201C61.4103 80.2154 62.4559 81.2454 63.7356 81.2454C65.0309 81.2454 66.0609 80.1998 66.0609 78.9201C66.0766 77.6404 65.0309 76.5948 63.7356 76.5948ZM35.8632 61.098C34.0373 61.098 32.5703 62.5806 32.5703 64.3753C32.5703 65.2486 32.9173 66.0861 33.5348 66.7037C34.1523 67.3212 34.9899 67.6681 35.8632 67.6681C36.7365 67.6681 37.5741 67.3212 38.1916 66.7037C38.8092 66.0861 39.1561 65.2486 39.1561 64.3753C39.1561 62.565 37.6891 61.098 35.8632 61.098Z" fill="#278DB6"/>
</svg>
