<svg width="1920" height="586" viewBox="0 0 1920 586" fill="none" xmlns="http://www.w3.org/2000/svg">
<path opacity="0.5" d="M3.31056e-10 46.1415L40 92.2831C80 138.425 160 230.708 240 207.637C320 184.566 400 46.1415 480 15.4286C560 -15.8612 640 62.0027 720 76.8545C800 92.2831 880 46.1415 960 61.5701C1040 76.4219 1120 154.286 1200 146.067C1280 138.425 1360 46.1415 1440 38.4993C1520 30.2804 1600 108.144 1680 115.354C1760 122.563 1840 62.0027 1880 30.713L1920 0V586H1880C1840 586 1760 586 1680 586C1600 586 1520 586 1440 586C1360 586 1280 586 1200 586C1120 586 1040 586 960 586C880 586 800 586 720 586C640 586 560 586 480 586C400 586 320 586 240 586C160 586 80 586 40 586H0L3.31056e-10 46.1415Z" fill="#C5E1EC"/>
</svg>
