<svg width="26" height="26" viewBox="0 0 26 26" fill="none" xmlns="http://www.w3.org/2000/svg">
<path fill-rule="evenodd" clip-rule="evenodd" d="M13.0543 0C16.5173 0.00142187 19.7677 1.34318 22.2119 3.77845C24.6561 6.21359 26.0015 9.45039 26 12.893C25.9973 19.9967 20.1893 25.7766 13.0546 25.7766H13.0491C10.8826 25.7759 8.75372 25.2349 6.86276 24.2084L0 26L1.83655 19.3238C0.703621 17.37 0.107602 15.1534 0.108582 12.8827C0.11144 5.77939 5.91879 0 13.0543 0ZM18.9564 15.5809C18.633 15.4197 17.0426 14.6411 16.746 14.5336C16.4497 14.4261 16.2339 14.3726 16.0184 14.6948C15.8027 15.0169 15.1829 15.7421 14.9941 15.9568C14.8053 16.1717 14.6168 16.1987 14.2933 16.0375C14.2405 16.0112 14.1686 15.9801 14.0798 15.9418C13.6245 15.7452 12.7259 15.3573 11.692 14.4396C10.7304 13.586 10.0813 12.5318 9.89253 12.2097C9.72373 11.9208 9.856 11.7644 9.98857 11.6077C10.004 11.5894 10.0195 11.5711 10.0344 11.5527C10.3846 11.1199 10.7352 10.6662 10.843 10.4515C10.951 10.2366 10.8969 10.0486 10.8159 9.88752C10.7618 9.77948 10.453 9.03115 10.1742 8.35548C10.0373 8.02372 9.9076 7.70947 9.81885 7.49714C9.58675 6.94291 9.35176 6.94432 9.16315 6.94545C9.13824 6.9456 9.11413 6.94574 9.09094 6.9446C8.90247 6.93522 8.68674 6.93331 8.471 6.93331C8.25539 6.93331 7.90491 7.01374 7.60835 7.33623C7.58931 7.35692 7.56805 7.3795 7.54494 7.40405C7.20805 7.76187 6.4764 8.53899 6.4764 10.0218C6.4764 11.5972 7.62217 13.1194 7.79426 13.3481L7.79714 13.3519C7.80771 13.3659 7.82663 13.393 7.85369 13.4316C8.24063 13.9839 10.2902 16.9095 13.3229 18.2126C14.0946 18.5446 14.697 18.7425 15.167 18.8909C15.9419 19.1359 16.6469 19.1013 17.2043 19.0184C17.8258 18.9259 19.1179 18.2396 19.3877 17.4877C19.6572 16.7357 19.6572 16.0912 19.5762 15.9568C19.5113 15.8489 19.3593 15.7758 19.1341 15.6675C19.0792 15.641 19.0199 15.6125 18.9564 15.5809Z" fill="white"/>
</svg>
